<svg id="acquisition" xmlns="http://www.w3.org/2000/svg" width="38.273" height="38.283" viewBox="0 0 38.273 38.283">
  <path id="Path_10759" data-name="Path 10759" d="M20.321,8.2a4.784,4.784,0,1,0-6.682,0A5.979,5.979,0,0,0,11,13.158a1.2,1.2,0,0,0,1.2,1.2h9.568a1.2,1.2,0,0,0,1.2-1.2A5.979,5.979,0,0,0,20.321,8.2Z" transform="translate(2.156 0.008)" fill="#fff"/>
  <path id="Path_10760" data-name="Path 10760" d="M9.321,8.2a4.784,4.784,0,1,0-6.682,0A5.979,5.979,0,0,0,0,13.158a1.2,1.2,0,0,0,1.2,1.2h9.568a1.2,1.2,0,0,0,1.2-1.2A5.979,5.979,0,0,0,9.321,8.2Z" transform="translate(0 0.008)" fill="#fff"/>
  <path id="Path_10761" data-name="Path 10761" d="M31.321,8.2a4.784,4.784,0,1,0-6.682,0A5.979,5.979,0,0,0,22,13.158a1.2,1.2,0,0,0,1.2,1.2h9.568a1.2,1.2,0,0,0,1.2-1.2A5.979,5.979,0,0,0,31.321,8.2Z" transform="translate(4.313 0.008)" fill="#fff"/>
  <path id="Path_10762" data-name="Path 10762" d="M10.372,18.757H2V15.336a1.2,1.2,0,0,1,1.2-1.2h5.98a1.2,1.2,0,0,1,1.2,1.2Z" transform="translate(0.392 2.782)" fill="#fff"/>
  <path id="Path_10763" data-name="Path 10763" d="M26.743,20h8.552A16.75,16.75,0,0,1,2.14,20h8.552a8.375,8.375,0,0,0,16.051,0Z" transform="translate(0.42 3.93)" fill="#fff"/>
  <path id="Path_10764" data-name="Path 10764" d="M31.372,15.2v3.588H23V15.2A1.2,1.2,0,0,1,24.2,14h5.98A1.2,1.2,0,0,1,31.372,15.2Z" transform="translate(4.509 2.754)" fill="#fff"/>
</svg>
