<svg id="Glyph" xmlns="http://www.w3.org/2000/svg" xmlns:xlink="http://www.w3.org/1999/xlink" width="63.193" height="63.193" viewBox="0 0 63.193 63.193">
  <defs>
    <linearGradient id="linear-gradient" x1="0.115" y1="0.115" x2="0.915" y2="0.915" gradientUnits="objectBoundingBox">
      <stop offset="0" stop-color="#feeac2"/>
      <stop offset="0.252" stop-color="#fbd382"/>
      <stop offset="0.555" stop-color="#fbc965"/>
      <stop offset="0.815" stop-color="#f8bf4d"/>
      <stop offset="1" stop-color="#fdb627"/>
    </linearGradient>
  </defs>
  <path id="Path_10816" data-name="Path 10816" d="M49.831,64.193H15.362a2.872,2.872,0,1,1,0-5.745H49.831a2.872,2.872,0,1,1,0,5.745ZM64.193,15.362V38.341A14.362,14.362,0,0,1,49.831,52.7H15.362A14.362,14.362,0,0,1,1,38.341V15.362A14.362,14.362,0,0,1,15.362,1H49.831A14.362,14.362,0,0,1,64.193,15.362Zm-51.7,5.745a2.872,2.872,0,0,0,2.872,2.872H32.6a2.872,2.872,0,1,0,0-5.745H15.362A2.872,2.872,0,0,0,12.49,21.107ZM52.7,32.6a2.872,2.872,0,0,0-2.872-2.872H15.362a2.872,2.872,0,1,0,0,5.745H49.831A2.872,2.872,0,0,0,52.7,32.6Z" transform="translate(-1 -1)" fill="url(#linear-gradient)"/>
</svg>
