<svg xmlns="http://www.w3.org/2000/svg" width="44.136" height="34.839" viewBox="0 0 44.136 34.839">
  <path id="diamond_1_" data-name="diamond (1)" d="M44.451,13.106,36.789,5.444A1.532,1.532,0,0,0,35.7,5H11.184a1.532,1.532,0,0,0-1.088.444L2.435,13.106a1.532,1.532,0,0,0,0,2.1L22.355,38.19l.169.153a1.532,1.532,0,0,0,2.161-.153L44.6,15.205a1.532,1.532,0,0,0-.153-2.1Zm-26.54,2.62H28.975l-5.532,16.61ZM39.67,12.662H32.146l-1.839-4.6h4.766Zm-27.858-4.6H16.5l-1.778,4.6H7.215Z" transform="translate(-1.416 -4.5)" fill="#fff" stroke="rgba(0,0,0,0)" stroke-miterlimit="10" stroke-width="1"/>
</svg>
