<svg xmlns="http://www.w3.org/2000/svg" xmlns:xlink="http://www.w3.org/1999/xlink" width="63.016" height="66.934" viewBox="0 0 63.016 66.934">
  <defs>
    <linearGradient id="linear-gradient" x1="0.115" y1="0.115" x2="0.915" y2="0.915" gradientUnits="objectBoundingBox">
      <stop offset="0" stop-color="#feeac2"/>
      <stop offset="0.252" stop-color="#fbd382"/>
      <stop offset="0.555" stop-color="#fbc965"/>
      <stop offset="0.815" stop-color="#f8bf4d"/>
      <stop offset="1" stop-color="#fdb627"/>
    </linearGradient>
  </defs>
  <g id="graphic-design" transform="translate(-14.983 0)">
    <path id="Path_10817" data-name="Path 10817" d="M56.855,143.446a11.292,11.292,0,0,1-3.225,6.618c-2.212,2.213-5.3,3.255-9.186,3.1a7.525,7.525,0,0,0-4.187.733,4.575,4.575,0,0,1-6.246-.209,4.6,4.6,0,0,1-.714-5.546l.731-1.158a8.918,8.918,0,0,0,.506-3.731c-.156-3.884.886-6.974,3.1-9.186a11.23,11.23,0,0,1,6.633-3.232,10.7,10.7,0,0,1,2.229-4.636H20.22a5.241,5.241,0,0,0-5.236,5.234v25.962H69.6V131.614l-6.637,8.134A10.7,10.7,0,0,1,56.855,143.446Z" transform="translate(-0.001 -109.699)" fill="url(#linear-gradient)"/>
    <path id="Path_10818" data-name="Path 10818" d="M14.983,396.5a5.241,5.241,0,0,0,5.236,5.233H35.1v4.489H31.8a1.961,1.961,0,0,0,0,3.922H52.784a1.961,1.961,0,0,0,0-3.922h-3.3v-4.489h14.88A5.241,5.241,0,0,0,69.6,396.5v-1.673H14.983V396.5Z" transform="translate(0 -343.211)" fill="url(#linear-gradient)"/>
    <path id="Path_10819" data-name="Path 10819" d="M180.833,206h-.006a.654.654,0,0,0,.928.92c.04-.038,2.02-1.869,6.9-1.672,2.744.111,4.849-.547,6.255-1.953a7.391,7.391,0,1,0-10.452-10.452c-1.406,1.406-2.063,3.511-1.953,6.255.2,4.9-1.654,6.879-1.669,6.895Z" transform="translate(-144.003 -165.754)" fill="url(#linear-gradient)"/>
    <path id="Path_10820" data-name="Path 10820" d="M278.21,132.96a6.758,6.758,0,0,0,3.289-2.191l2.506-3.071-8.926-8.926-3.058,2.5a6.749,6.749,0,0,0-2.2,3.287,11.311,11.311,0,0,1,8.386,8.4Z" transform="translate(-221.526 -103.246)" fill="url(#linear-gradient)"/>
    <path id="Path_10821" data-name="Path 10821" d="M353.59,1.177a4,4,0,0,0-5.369-.269L333.376,13.034l8.365,8.365,12.12-14.853a4,4,0,0,0-.271-5.368Z" transform="translate(-276.769 0)" fill="url(#linear-gradient)"/>
  </g>
</svg>
