<svg xmlns="http://www.w3.org/2000/svg" width="36.347" height="36.347" viewBox="0 0 36.347 36.347">
  <g id="down-right" transform="translate(18.174 -8.485) rotate(45)">
    <path id="Path_10679" data-name="Path 10679" d="M29.56,31.7a1.944,1.944,0,0,1-1.5-.643L6.643,9.641a2.12,2.12,0,0,1,3-3L31.059,28.06a2.07,2.07,0,0,1,0,3,1.944,1.944,0,0,1-1.5.643Z" transform="translate(0 0)" fill="#07042b"/>
    <path id="Path_10680" data-name="Path 10680" d="M27.254,29.28H9.025a2.025,2.025,0,1,1,0-4.051h16.2V9.025a2.025,2.025,0,1,1,4.051,0V27.254A1.914,1.914,0,0,1,27.254,29.28Z" transform="translate(2.422 2.422)" fill="#07042b"/>
  </g>
</svg>
