<svg xmlns="http://www.w3.org/2000/svg" width="35.798" height="35.799" viewBox="0 0 35.798 35.799">
  <g id="down-right" transform="translate(-8.485 17.899) rotate(-45)">
    <path id="Path_10679" data-name="Path 10679" d="M29.2,31.313a1.915,1.915,0,0,1-1.477-.633L6.633,9.586A2.088,2.088,0,1,1,9.586,6.633L30.68,27.727a2.039,2.039,0,0,1,0,2.953,1.915,1.915,0,0,1-1.477.633Z" transform="translate(0)" fill="#07042b"/>
    <path id="Path_10680" data-name="Path 10680" d="M26.948,28.943H8.995a1.995,1.995,0,0,1,0-3.99H24.953V8.995a1.995,1.995,0,0,1,3.99,0V26.948A1.885,1.885,0,0,1,26.948,28.943Z" transform="translate(2.37 2.37)" fill="#07042b"/>
  </g>
</svg>
