<svg xmlns="http://www.w3.org/2000/svg" width="17.548" height="17.548" viewBox="0 0 17.548 17.548">
  <g id="down-right" transform="translate(-6 23.548) rotate(-90)">
    <path id="Path_10679" data-name="Path 10679" d="M22.086,23.548a1.328,1.328,0,0,1-1.024-.439L6.439,8.486A1.448,1.448,0,0,1,8.486,6.439L23.109,21.062a1.414,1.414,0,0,1,0,2.047,1.328,1.328,0,0,1-1.024.439Z" transform="translate(0 0)" fill="#fdb627"/>
    <path id="Path_10680" data-name="Path 10680" d="M20.829,22.212H8.383a1.383,1.383,0,1,1,0-2.766H19.446V8.383a1.383,1.383,0,1,1,2.766,0V20.829A1.307,1.307,0,0,1,20.829,22.212Z" transform="translate(1.336 1.336)" fill="#fdb627"/>
  </g>
</svg>
