<svg xmlns="http://www.w3.org/2000/svg" width="660.552" height="660.552" viewBox="0 0 660.552 660.552">
  <g id="Path_10661" data-name="Path 10661" fill="none">
    <path d="M330.276,0C512.682,0,660.552,147.87,660.552,330.276S512.682,660.552,330.276,660.552,0,512.682,0,330.276,147.87,0,330.276,0Z" stroke="none"/>
    <path d="M 330.27587890625 149.9999694824219 C 230.871337890625 149.9999694824219 149.9999694824219 230.871337890625 149.9999694824219 330.27587890625 C 149.9999694824219 429.680419921875 230.871337890625 510.5517883300781 330.27587890625 510.5517883300781 C 429.680419921875 510.5517883300781 510.5517883300781 429.680419921875 510.5517883300781 330.27587890625 C 510.5517883300781 230.871337890625 429.680419921875 149.9999694824219 330.27587890625 149.9999694824219 M 330.27587890625 0 C 512.6822509765625 0 660.5517578125 147.8695068359375 660.5517578125 330.27587890625 C 660.5517578125 512.6822509765625 512.6822509765625 660.5517578125 330.27587890625 660.5517578125 C 147.8695068359375 660.5517578125 0 512.6822509765625 0 330.27587890625 C 0 147.8695068359375 147.8695068359375 0 330.27587890625 0 Z" stroke="none" fill="#fdb627"/>
  </g>
</svg>
