<svg xmlns="http://www.w3.org/2000/svg" width="1383.997" height="1383.997" viewBox="0 0 1383.997 1383.997">
  <g id="Path_10606" data-name="Path 10606" fill="none">
    <path d="M692,0c382.18,0,692,309.818,692,692s-309.818,692-692,692S0,1074.179,0,692,309.818,0,692,0Z" stroke="none"/>
    <path d="M 691.99853515625 200.0001220703125 C 420.709716796875 200.0001220703125 200.0001220703125 420.709716796875 200.0001220703125 691.99853515625 C 200.0001220703125 963.287353515625 420.709716796875 1183.996948242188 691.99853515625 1183.996948242188 C 963.287353515625 1183.996948242188 1183.996948242188 963.287353515625 1183.996948242188 691.99853515625 C 1183.996948242188 420.709716796875 963.287353515625 200.0001220703125 691.99853515625 200.0001220703125 M 691.99853515625 0.0001220703125 C 1074.178466796875 0.0001220703125 1383.996948242188 309.8184814453125 1383.996948242188 691.99853515625 C 1383.996948242188 1074.178466796875 1074.178466796875 1383.996948242188 691.99853515625 1383.996948242188 C 309.8184814453125 1383.996948242188 0.0001220703125 1074.178466796875 0.0001220703125 691.99853515625 C 0.0001220703125 309.8184814453125 309.8184814453125 0.0001220703125 691.99853515625 0.0001220703125 Z" stroke="none" fill="#fdb627"/>
  </g>
</svg>
