<svg xmlns="http://www.w3.org/2000/svg" xmlns:xlink="http://www.w3.org/1999/xlink" width="395" height="257" viewBox="0 0 395 257"><rect width="100%" height="100%" fill="#DDDDDD"/><path d="M83.36 120.63L79.92 120.02Q80.32 117.26 81.46 115.18Q82.60 113.10 84.31 111.71Q86.01 110.32 88.23 109.62Q90.44 108.92 92.98 108.92L92.98 108.92Q95.63 108.92 97.77 109.67Q99.90 110.43 101.41 111.77Q102.92 113.10 103.73 114.91Q104.54 116.71 104.54 118.80L104.54 118.80Q104.54 120.63 104.13 122.02Q103.72 123.41 102.95 124.45Q102.18 125.48 101.04 126.19Q99.90 126.91 98.47 127.39L98.47 127.39Q101.91 128.47 103.61 130.70Q105.31 132.93 105.31 136.29L105.31 136.29Q105.31 139.15 104.25 141.35Q103.19 143.55 101.38 145.05Q99.58 146.55 97.21 147.31Q94.84 148.08 92.19 148.08L92.19 148.08Q89.30 148.08 87.15 147.42Q85.01 146.76 83.42 145.46Q81.83 144.16 80.71 142.28Q79.60 140.40 78.81 137.93L78.81 137.93L81.70 136.74Q82.83 136.26 83.83 136.49Q84.82 136.72 85.27 137.56L85.27 137.56Q85.75 138.49 86.32 139.39Q86.89 140.29 87.68 140.99Q88.48 141.70 89.55 142.13Q90.63 142.57 92.11 142.57L92.11 142.57Q93.78 142.57 95.02 142.03Q96.27 141.49 97.10 140.61Q97.94 139.74 98.35 138.66Q98.76 137.59 98.76 136.50L98.76 136.50Q98.76 135.13 98.47 134.00Q98.18 132.87 97.25 132.08Q96.32 131.28 94.59 130.83Q92.85 130.38 89.94 130.38L89.94 130.38L89.94 125.72Q92.35 125.69 93.94 125.27Q95.53 124.84 96.47 124.09Q97.41 123.33 97.78 122.27Q98.15 121.21 98.15 119.94L98.15 119.94Q98.15 117.24 96.64 115.83Q95.13 114.43 92.61 114.43L92.61 114.43Q91.45 114.43 90.47 114.76Q89.49 115.09 88.70 115.69Q87.92 116.28 87.39 117.08Q86.86 117.87 86.60 118.83L86.60 118.83Q86.15 120.05 85.42 120.44Q84.69 120.84 83.36 120.63L83.36 120.63ZM116.54 120.84L116.54 120.84Q116.54 124.05 118.20 125.73Q119.86 127.41 122.90 127.41L122.90 127.41Q124.49 127.41 125.74 126.91Q126.98 126.41 127.83 125.53Q128.68 124.66 129.12 123.47Q129.55 122.27 129.55 120.89L129.55 120.89Q129.55 119.33 129.08 118.10Q128.60 116.87 127.73 116.02Q126.85 115.17 125.65 114.72Q124.44 114.27 123.01 114.27L123.01 114.27Q121.52 114.27 120.33 114.76Q119.14 115.25 118.29 116.12Q117.44 117.00 116.99 118.20Q116.54 119.41 116.54 120.84ZM113.34 147.66L125.23 132.79Q125.69 132.24 126.08 131.71Q126.48 131.18 126.85 130.65L126.85 130.65Q125.53 131.49 123.94 131.93Q122.35 132.37 120.60 132.37L120.60 132.37Q118.61 132.37 116.70 131.68Q114.79 130.99 113.31 129.60Q111.83 128.21 110.91 126.15Q110.00 124.10 110.00 121.35L110.00 121.35Q110.00 118.77 110.95 116.52Q111.91 114.27 113.63 112.57Q115.35 110.88 117.76 109.90Q120.17 108.92 123.09 108.92L123.09 108.92Q126.03 108.92 128.37 109.84Q130.72 110.77 132.38 112.44Q134.03 114.11 134.92 116.44Q135.81 118.77 135.81 121.56L135.81 121.56Q135.81 123.33 135.50 124.92Q135.20 126.51 134.64 127.98Q134.09 129.45 133.29 130.86Q132.50 132.26 131.51 133.64L131.51 133.64L122.74 146.15Q122.29 146.78 121.39 147.22Q120.49 147.66 119.35 147.66L119.35 147.66L113.34 147.66ZM150.65 115.28L149.30 123.25Q150.57 122.99 151.73 122.87Q152.90 122.75 153.99 122.75L153.99 122.75Q157.01 122.75 159.31 123.65Q161.62 124.55 163.18 126.14Q164.75 127.73 165.54 129.86Q166.34 132.00 166.34 134.46L166.34 134.46Q166.34 137.51 165.26 140.03Q164.19 142.55 162.28 144.33Q160.37 146.12 157.76 147.10Q155.15 148.08 152.08 148.08L152.08 148.08Q150.28 148.08 148.66 147.71Q147.04 147.34 145.63 146.72Q144.21 146.10 143.00 145.29Q141.80 144.48 140.84 143.58L140.84 143.58L142.86 140.80Q143.49 139.90 144.53 139.90L144.53 139.90Q145.19 139.90 145.88 140.32Q146.57 140.74 147.45 141.25Q148.34 141.75 149.55 142.17Q150.75 142.60 152.45 142.60L152.45 142.60Q154.25 142.60 155.63 142.02Q157.01 141.43 157.92 140.39Q158.84 139.34 159.30 137.89Q159.76 136.45 159.76 134.75L159.76 134.75Q159.76 131.63 157.95 129.86Q156.13 128.10 152.58 128.10L152.58 128.10Q149.85 128.10 146.99 129.11L146.99 129.11L142.91 127.94L146.09 109.34L165.01 109.34L165.01 112.12Q165.01 113.53 164.14 114.40Q163.26 115.28 161.17 115.28L161.17 115.28L150.65 115.28ZM210.03 138.89L206.56 142.31L197.58 133.32L188.52 142.36L185.04 138.94L194.11 129.85L185.47 121.21L188.91 117.77L197.55 126.41L206.14 117.82L209.64 121.27L201.02 129.88L210.03 138.89ZM241.94 141.56L251.77 141.56Q252.83 141.56 253.45 142.16Q254.08 142.76 254.08 143.74L254.08 143.74L254.08 147.66L227.79 147.66L227.79 145.49Q227.79 144.82 228.07 144.10Q228.35 143.37 228.96 142.78L228.96 142.78L240.59 131.12Q242.05 129.64 243.20 128.29Q244.35 126.94 245.12 125.61Q245.89 124.29 246.30 122.92Q246.71 121.56 246.71 120.05L246.71 120.05Q246.71 118.67 246.31 117.62Q245.92 116.58 245.19 115.86Q244.46 115.14 243.44 114.79Q242.42 114.43 241.15 114.43L241.15 114.43Q239.98 114.43 238.99 114.76Q237.99 115.09 237.22 115.69Q236.45 116.28 235.92 117.08Q235.39 117.87 235.13 118.83L235.13 118.83Q234.68 120.05 233.96 120.44Q233.25 120.84 231.90 120.63L231.90 120.63L228.45 120.02Q228.85 117.26 229.99 115.18Q231.13 113.10 232.84 111.71Q234.55 110.32 236.76 109.62Q238.97 108.92 241.52 108.92L241.52 108.92Q244.17 108.92 246.37 109.70Q248.57 110.48 250.13 111.91Q251.69 113.34 252.57 115.36Q253.44 117.37 253.44 119.83L253.44 119.83Q253.44 121.95 252.82 123.76Q252.20 125.56 251.15 127.20Q250.10 128.84 248.70 130.38Q247.29 131.92 245.76 133.51L245.76 133.51L237.12 142.33Q238.36 141.96 239.60 141.76Q240.83 141.56 241.94 141.56L241.94 141.56ZM268.63 115.28L267.27 123.25Q268.55 122.99 269.71 122.87Q270.88 122.75 271.96 122.75L271.96 122.75Q274.99 122.75 277.29 123.65Q279.60 124.55 281.16 126.14Q282.72 127.73 283.52 129.86Q284.31 132.00 284.31 134.46L284.31 134.46Q284.31 137.51 283.24 140.03Q282.17 142.55 280.26 144.33Q278.35 146.12 275.74 147.10Q273.13 148.08 270.06 148.08L270.06 148.08Q268.25 148.08 266.64 147.71Q265.02 147.34 263.60 146.72Q262.19 146.10 260.98 145.29Q259.77 144.48 258.82 143.58L258.82 143.58L260.83 140.80Q261.47 139.90 262.50 139.90L262.50 139.90Q263.17 139.90 263.86 140.32Q264.54 140.74 265.43 141.25Q266.32 141.75 267.53 142.17Q268.73 142.60 270.43 142.60L270.43 142.60Q272.23 142.60 273.61 142.02Q274.99 141.43 275.90 140.39Q276.81 139.34 277.28 137.89Q277.74 136.45 277.74 134.75L277.74 134.75Q277.74 131.63 275.93 129.86Q274.11 128.10 270.56 128.10L270.56 128.10Q267.83 128.10 264.97 129.11L264.97 129.11L260.89 127.94L264.07 109.34L282.99 109.34L282.99 112.12Q282.99 113.53 282.11 114.40Q281.24 115.28 279.15 115.28L279.15 115.28L268.63 115.28ZM289.72 109.34L316.19 109.34L316.19 112.18Q316.19 113.45 315.93 114.23Q315.66 115.01 315.40 115.54L315.40 115.54L300.88 145.43Q300.43 146.36 299.60 147.01Q298.78 147.66 297.40 147.66L297.40 147.66L292.66 147.66L307.47 118.38Q307.98 117.48 308.47 116.72Q308.96 115.97 309.57 115.28L309.57 115.28L291.23 115.28Q290.62 115.28 290.17 114.83Q289.72 114.38 289.72 113.77L289.72 113.77L289.72 109.34Z" fill="#999999"/></svg>