<svg xmlns="http://www.w3.org/2000/svg" xmlns:xlink="http://www.w3.org/1999/xlink" width="74" height="74" viewBox="0 0 74 74"><rect width="100%" height="100%" fill="#DDDDDD"/><path d="M12.14 31.58L19.64 31.58L19.64 32.38Q19.64 32.74 19.56 32.96Q19.49 33.19 19.41 33.34L19.41 33.34L15.30 41.80Q15.18 42.06 14.94 42.24Q14.71 42.43 14.32 42.43L14.32 42.43L12.98 42.43L17.17 34.14Q17.31 33.88 17.45 33.67Q17.59 33.46 17.76 33.26L17.76 33.26L12.57 33.26Q12.40 33.26 12.27 33.13Q12.14 33.01 12.14 32.83L12.14 32.83L12.14 31.58ZM22.19 38.34L25.49 38.34L25.49 34.79Q25.49 34.29 25.55 33.68L25.55 33.68L22.19 38.34ZM27.10 38.34L28.46 38.34L28.46 39.41Q28.46 39.56 28.37 39.67Q28.27 39.78 28.09 39.78L28.09 39.78L27.10 39.78L27.10 42.43L25.49 42.43L25.49 39.78L20.91 39.78Q20.73 39.78 20.58 39.66Q20.44 39.55 20.40 39.37L20.40 39.37L20.21 38.44L25.34 31.57L27.10 31.57L27.10 38.34ZM40.38 39.94L39.40 40.91L36.86 38.37L34.29 40.93L33.31 39.96L35.88 37.39L33.43 34.94L34.41 33.97L36.85 36.41L39.28 33.98L40.27 34.96L37.83 37.39L40.38 39.94ZM45.53 31.58L53.03 31.58L53.03 32.38Q53.03 32.74 52.95 32.96Q52.88 33.19 52.80 33.34L52.80 33.34L48.69 41.80Q48.56 42.06 48.33 42.24Q48.10 42.43 47.71 42.43L47.71 42.43L46.37 42.43L50.56 34.14Q50.70 33.88 50.84 33.67Q50.98 33.46 51.15 33.26L51.15 33.26L45.96 33.26Q45.79 33.26 45.66 33.13Q45.53 33.01 45.53 32.83L45.53 32.83L45.53 31.58ZM55.58 38.34L58.88 38.34L58.88 34.79Q58.88 34.29 58.94 33.68L58.94 33.68L55.58 38.34ZM60.49 38.34L61.85 38.34L61.85 39.41Q61.85 39.56 61.76 39.67Q61.66 39.78 61.48 39.78L61.48 39.78L60.49 39.78L60.49 42.43L58.88 42.43L58.88 39.78L54.30 39.78Q54.11 39.78 53.97 39.66Q53.83 39.55 53.79 39.37L53.79 39.37L53.60 38.44L58.73 31.57L60.49 31.57L60.49 38.34Z" fill="#999999"/></svg>