<svg xmlns="http://www.w3.org/2000/svg" xmlns:xlink="http://www.w3.org/1999/xlink" width="1519" height="426" viewBox="0 0 1519 426"><rect width="100%" height="100%" fill="#DDDDDD"/><path d="M358.41 262.23L382.20 262.23L382.20 279.15L309.00 279.15L309.00 262.23L335.81 262.23L335.81 185.09Q335.81 180.52 336.08 175.67L336.08 175.67L317.05 191.59Q315.40 192.87 313.80 193.19Q312.20 193.51 310.78 193.24Q309.37 192.96 308.27 192.28Q307.17 191.59 306.62 190.77L306.62 190.77L299.48 180.97L339.84 146.66L358.41 146.66L358.41 262.23ZM435.45 167.34L430.79 194.88Q435.18 193.97 439.20 193.56Q443.23 193.14 446.98 193.14L446.98 193.14Q457.41 193.14 465.37 196.26Q473.33 199.37 478.73 204.86Q484.13 210.35 486.88 217.71Q489.62 225.08 489.62 233.59L489.62 233.59Q489.62 244.11 485.91 252.80Q482.21 261.50 475.62 267.67Q469.03 273.85 460.02 277.23Q451.01 280.62 440.39 280.62L440.39 280.62Q434.17 280.62 428.59 279.34Q423.01 278.06 418.11 275.91Q413.22 273.76 409.06 270.97Q404.89 268.17 401.60 265.06L401.60 265.06L408.55 255.46Q410.75 252.34 414.32 252.34L414.32 252.34Q416.60 252.34 418.98 253.81Q421.36 255.27 424.43 257.01Q427.49 258.75 431.66 260.21Q435.82 261.68 441.67 261.68L441.67 261.68Q447.90 261.68 452.65 259.66Q457.41 257.65 460.57 254.04Q463.73 250.42 465.33 245.44Q466.93 240.45 466.93 234.59L466.93 234.59Q466.93 223.80 460.66 217.71Q454.39 211.63 442.13 211.63L442.13 211.63Q432.71 211.63 422.83 215.10L422.83 215.10L408.73 211.08L419.71 146.85L485.05 146.85L485.05 156.45Q485.05 161.30 482.03 164.32Q479.01 167.34 471.78 167.34L471.78 167.34L435.45 167.34ZM570.69 262.23L594.48 262.23L594.48 279.15L521.28 279.15L521.28 262.23L548.09 262.23L548.09 185.09Q548.09 180.52 548.36 175.67L548.36 175.67L529.33 191.59Q527.68 192.87 526.08 193.19Q524.48 193.51 523.06 193.24Q521.65 192.96 520.55 192.28Q519.45 191.59 518.90 190.77L518.90 190.77L511.76 180.97L552.12 146.66L570.69 146.66L570.69 262.23ZM636.11 186.56L636.11 186.56Q636.11 197.63 641.83 203.44Q647.55 209.25 658.07 209.25L658.07 209.25Q663.56 209.25 667.86 207.51Q672.16 205.77 675.09 202.75Q678.02 199.73 679.53 195.61Q681.04 191.50 681.04 186.74L681.04 186.74Q681.04 181.34 679.39 177.09Q677.74 172.83 674.73 169.90Q671.71 166.98 667.54 165.42Q663.38 163.86 658.44 163.86L658.44 163.86Q653.31 163.86 649.20 165.56Q645.08 167.25 642.15 170.27Q639.22 173.29 637.67 177.45Q636.11 181.62 636.11 186.56ZM625.04 279.15L666.12 227.82Q667.68 225.90 669.05 224.07Q670.42 222.24 671.71 220.41L671.71 220.41Q667.13 223.34 661.64 224.85Q656.15 226.36 650.11 226.36L650.11 226.36Q643.25 226.36 636.66 223.98Q630.07 221.60 624.95 216.80Q619.83 211.99 616.67 204.90Q613.51 197.81 613.51 188.29L613.51 188.29Q613.51 179.42 616.81 171.64Q620.10 163.86 626.05 158.01Q631.99 152.15 640.32 148.77Q648.65 145.38 658.71 145.38L658.71 145.38Q668.87 145.38 676.97 148.58Q685.06 151.79 690.78 157.55Q696.50 163.32 699.57 171.37Q702.63 179.42 702.63 189.03L702.63 189.03Q702.63 195.16 701.58 200.65Q700.53 206.14 698.61 211.22Q696.69 216.29 693.94 221.14Q691.20 225.99 687.81 230.75L687.81 230.75L657.52 273.94Q655.97 276.13 652.86 277.64Q649.75 279.15 645.81 279.15L645.81 279.15L625.04 279.15ZM852.78 248.87L840.80 260.67L809.78 229.65L778.49 260.85L766.50 249.05L797.79 217.67L767.96 187.84L779.86 175.94L809.69 205.77L839.33 176.13L851.41 188.02L821.67 217.76L852.78 248.87ZM932.02 229.29L972.28 229.29L972.28 186.01Q972.28 179.88 973.11 172.47L973.11 172.47L932.02 229.29ZM991.96 229.29L1008.61 229.29L1008.61 242.37Q1008.61 244.20 1007.42 245.53Q1006.23 246.85 1004.03 246.85L1004.03 246.85L991.96 246.85L991.96 279.15L972.28 279.15L972.28 246.85L916.47 246.85Q914.18 246.85 912.44 245.44Q910.70 244.02 910.25 241.91L910.25 241.91L907.87 230.48L970.54 146.75L991.96 146.75L991.96 229.29ZM1069.09 258.11L1103.04 258.11Q1106.70 258.11 1108.85 260.17Q1111.00 262.23 1111.00 265.61L1111.00 265.61L1111.00 279.15L1020.23 279.15L1020.23 271.65Q1020.23 269.36 1021.19 266.85Q1022.15 264.33 1024.26 262.32L1024.26 262.32L1064.42 222.06Q1069.46 216.93 1073.44 212.27Q1077.42 207.60 1080.07 203.03Q1082.72 198.45 1084.14 193.74Q1085.56 189.03 1085.56 183.81L1085.56 183.81Q1085.56 179.05 1084.19 175.44Q1082.82 171.82 1080.30 169.35Q1077.78 166.88 1074.26 165.65Q1070.74 164.41 1066.35 164.41L1066.35 164.41Q1062.32 164.41 1058.89 165.56Q1055.46 166.70 1052.80 168.76Q1050.15 170.82 1048.32 173.56Q1046.49 176.31 1045.57 179.60L1045.57 179.60Q1044.02 183.81 1041.55 185.18Q1039.08 186.56 1034.41 185.82L1034.41 185.82L1022.52 183.72Q1023.89 174.20 1027.82 167.02Q1031.76 159.84 1037.66 155.03Q1043.56 150.23 1051.20 147.81Q1058.84 145.38 1067.63 145.38L1067.63 145.38Q1076.78 145.38 1084.37 148.08Q1091.97 150.78 1097.36 155.72Q1102.76 160.66 1105.78 167.62Q1108.80 174.57 1108.80 183.08L1108.80 183.08Q1108.80 190.40 1106.65 196.62Q1104.50 202.84 1100.89 208.52Q1097.27 214.19 1092.42 219.50Q1087.57 224.80 1082.27 230.29L1082.27 230.29L1052.44 260.76Q1056.74 259.48 1060.99 258.80Q1065.25 258.11 1069.09 258.11L1069.09 258.11ZM1206.43 146.85L1167.18 194.88L1162.60 200.56Q1166.45 198.63 1170.88 197.58Q1175.32 196.53 1180.45 196.53L1180.45 196.53Q1187.95 196.53 1195.04 199.00Q1202.13 201.47 1207.53 206.46Q1212.93 211.44 1216.22 218.86Q1219.52 226.27 1219.52 236.15L1219.52 236.15Q1219.52 245.39 1216.13 253.49Q1212.75 261.59 1206.61 267.63Q1200.48 273.66 1191.84 277.14Q1183.19 280.62 1172.76 280.62L1172.76 280.62Q1162.15 280.62 1153.73 277.23Q1145.31 273.85 1139.36 267.76Q1133.41 261.68 1130.26 253.12Q1127.10 244.57 1127.10 234.14L1127.10 234.14Q1127.10 224.80 1130.90 214.97Q1134.70 205.13 1142.66 194.52L1142.66 194.52L1174.22 152.15Q1175.87 149.96 1179.03 148.40Q1182.18 146.85 1186.30 146.85L1186.30 146.85L1206.43 146.85ZM1172.30 262.14L1172.30 262.14Q1177.70 262.14 1182.23 260.31Q1186.76 258.48 1190.01 255.18Q1193.26 251.89 1195.09 247.45Q1196.92 243.01 1196.92 237.80L1196.92 237.80Q1196.92 232.12 1195.18 227.59Q1193.44 223.06 1190.24 219.91Q1187.03 216.75 1182.55 215.10Q1178.07 213.46 1172.67 213.46L1172.67 213.46Q1167.27 213.46 1162.88 215.29Q1158.49 217.12 1155.37 220.37Q1152.26 223.61 1150.53 228.05Q1148.79 232.49 1148.79 237.61L1148.79 237.61Q1148.79 243.10 1150.30 247.63Q1151.81 252.16 1154.78 255.36Q1157.75 258.57 1162.15 260.35Q1166.54 262.14 1172.30 262.14Z" fill="#999999"/></svg>