<svg xmlns="http://www.w3.org/2000/svg" width="38.156" height="38.156" viewBox="0 0 38.156 38.156">
  <g id="quality" transform="translate(0 0)">
    <path id="Path_10771" data-name="Path 10771" d="M36.555,11.241l-3.9-2.331-.878-3.633a3.347,3.347,0,0,0-3.518-2.557l-4.457.345L21.253.8A3.342,3.342,0,0,0,16.9.8L14.35,3.066,9.893,2.721A3.329,3.329,0,0,0,6.415,5.145L5.125,9.153,1.6,11.24A3.339,3.339,0,0,0,.257,15.377l1.521,3.685L.258,22.747A3.336,3.336,0,0,0,1.6,26.883L5.493,29.2l.881,3.649A3.347,3.347,0,0,0,9.893,35.4l4.409-.341,2.6,2.287a3.338,3.338,0,0,0,4.349,0l2.6-2.287,4.409.341a3.322,3.322,0,0,0,3.518-2.557l.878-3.633,3.9-2.331A3.34,3.34,0,0,0,37.9,22.747l-1.521-3.684L37.9,15.376a3.339,3.339,0,0,0-1.345-4.135ZM19.078,31.375a12.3,12.3,0,1,1,12.3-12.3A12.31,12.31,0,0,1,19.078,31.375Z" transform="translate(0 0)" fill="#fff"/>
    <path id="Path_10772" data-name="Path 10772" d="M131.061,121a10.061,10.061,0,1,0,10.061,10.061A10.072,10.072,0,0,0,131.061,121Zm6.38,7.5-6.707,6.707a1.117,1.117,0,0,1-1.581,0l-4.471-4.471a1.118,1.118,0,0,1,1.581-1.581l3.681,3.681,5.917-5.917a1.118,1.118,0,1,1,1.581,1.581Z" transform="translate(-111.983 -111.983)" fill="#fff"/>
  </g>
</svg>
