<svg xmlns="http://www.w3.org/2000/svg" viewBox="0 0 1022.5 1022.37"><defs><style>.cls-1{fill:#fff;}</style></defs><g id="Layer_2" data-name="Layer 2"><g id="Layer_1-2" data-name="Layer 1"><path class="cls-1" d="M409.09,63.81C413,77,400.86,85.71,388.24,89.42c-13.54,4-24.53.67-30.17-9l-.48-.83,7.61-4,.44.79c4.24,7.66,11.84,10,22.59,6.8,7.88-2.31,12.44-8.88,10.61-15.3s-9.44-6.79-21-7.5l-3-.18c-10.71-.63-24-1.43-27.64-13.75-2.21-7.55,2.25-20.4,19.08-25.34,11.42-3.35,21.51-1.62,29.18,5l.87.74-6.74,5.05-.57-.49c-4.48-3.85-11.76-7.88-21-5.16-5.49,1.61-9.22,4.46-10.75,8.24a10.49,10.49,0,0,0,.15,8.4c2.77,4.9,8.6,5.22,18.27,5.74l4,.23C390.66,49.51,405.57,51.8,409.09,63.81Z"/><path class="cls-1" d="M465.39,61.87l5,3.74-.87.76A37.22,37.22,0,0,1,451.08,75c-20.39,3.28-40.24-10.34-43.36-29.75S419.2,6.64,439.58,3.37a37.12,37.12,0,0,1,22.54,3.45l1,.49-4.58,6.53-.74-.41A28.3,28.3,0,0,0,435,10.8a22.89,22.89,0,0,0-13.88,11.93c-3.45,7.08-3.63,16.09-.48,24.73,5.92,16.29,20.68,24.73,35.1,20.08a25.79,25.79,0,0,0,9.13-5.18Z"/><path class="cls-1" d="M519.46,49.52l-.93.51,13.35,19.33-15,.32-9.36-14.07a4.45,4.45,0,0,0-4-2.06c-.65,0-1.31.06-1.87.08L486.05,54l.36,16.39-12.21.24L472.72.6,500.52,0c16.63-.36,30.94,11.45,31.24,25.77l0,.75C532,36.57,527.5,44.94,519.46,49.52ZM500.63,5.2,485,5.53l.91,43.23,15.62-.33c12.73-.28,18.2-11,18-21.59V26C519.28,15.45,513.36,4.93,500.63,5.2Z"/><path class="cls-1" d="M608.48,43.28c-2.56,19.49-21,33.83-40.3,31.29S535,53.46,537.54,34,558.46.13,577.63,2.65,611,23.79,608.48,43.28ZM557.1,15.2C551.72,21,548.89,30,549.33,39.84c.78,17.21,11.27,29.36,24.94,28.88a20.55,20.55,0,0,0,14.6-6.89c5.59-6,8.53-15.16,8.1-25-.7-15.33-9.56-26.56-21.63-28.15a23.78,23.78,0,0,0-3.79-.18A20.27,20.27,0,0,0,557.1,15.2Z"/><path class="cls-1" d="M655.19,86.86,653.49,88l-4.68,3.11-.35.19L606.82,79.93l18.52-67.66L634,14.62v0l3.07.83L620.15,77.29Z"/><path class="cls-1" d="M700.67,105.22l-1.8.94c-4.86,2.51-5,2.56-5,2.57l-.35.16L653.36,93,679.2,27.79l8.52,3.37h0l2.74,1.09L666.89,91.86Z"/><path class="cls-1" d="M806.1,99.89,775.88,80.51l-15.42,24,19.1,12.25-1.71.65c-5.22,2-5.22,2-5.68,1.8l-15-9.6-16,25-9.89-6.35,38-59.21L815.9,99Z"/><path class="cls-1" d="M843,167.49c-12.56,15.13-35.79,17.4-50.74,5s-16.82-35.55-4.26-50.65,35.7-17.46,50.56-5.11S855.54,152.39,843,167.49Zm-28.47-51.08c-7.65,2-14.83,8.13-19.7,16.67-8.51,15-6.11,30.82,5.7,37.7a20.52,20.52,0,0,0,16,1.95c7.94-2.13,15.29-8.25,20.15-16.81,7.59-13.32,6.07-27.54-3.28-35.31a22.38,22.38,0,0,0-3.11-2.17A20.23,20.23,0,0,0,814.53,116.41Z"/><path class="cls-1" d="M867.67,218c-.34-.13-.68-.27-1-.37l-6.07,22.71-10-11.18,4.64-16.27a4.43,4.43,0,0,0-1-4.4L853,207.09l-10.38-11.68-12.25,10.9-8.12-9.14,52.37-46.55,18.48,20.81c11.07,12.43,11.36,31,.64,40.52l-.56.5C885.68,219.12,876.39,221.13,867.67,218Zm21.55-43.11L878.84,163.2,846.51,192l10.37,11.67c8.48,9.53,20.23,6.71,28.12-.31l.63-.56C893.51,195.74,897.69,184.4,889.22,174.87Z"/><path class="cls-1" d="M981.35,307.66,919.05,340l-5.12-9.94,50.1-26-57.65-1.4,26.27-46.75L887.59,279.3l-2.79-5.37,62.27-32.31,4.09,7.87L924.57,297l51.94,1.3Z"/><path class="cls-1" d="M975.18,400.29c-18.76,5.84-39.5-4.9-45.26-23.46s5.25-39,24-44.8,39.47,4.83,45.2,23.28S993.94,394.47,975.18,400.29Zm4-58.36c-7.53-2.44-16.86-1.26-25.59,3.26-15.3,7.9-21.93,22.52-15.77,34.71a20.56,20.56,0,0,0,12.36,10.37c7.83,2.53,17.33,1.4,26.07-3.11,13.62-7.05,20.09-19.8,16.48-31.41a23.35,23.35,0,0,0-1.42-3.52A20.27,20.27,0,0,0,979.14,341.93Z"/><path class="cls-1" d="M969,456l-.63-.85L951,471l-2.36-14.78L961.34,445a4.43,4.43,0,0,0,1.49-4.28c-.12-.64-.24-1.29-.32-1.84l-2.46-15.43-16.19,2.58L941.94,414l69.19-11,4.37,27.48c2.63,16.44-7.12,32.24-21.28,34.5l-.76.12C983.55,466.65,974.64,463.33,969,456Zm41.38-24.72-2.46-15.43-42.73,6.81,2.46,15.43c2,12.58,13.42,16.53,23.84,14.88l.84-.13C1002.75,451.16,1012.39,443.86,1010.38,431.27Z"/><path class="cls-1" d="M957.64,487.4l1.07,37.83-6.43-4.56L951,475.53l70-2,.1,3.32,1.35,47.7-6.24-5.79-.92-33-21,.6,1.06,37.39-6.17-4.66-.92-32.55Z"/><path class="cls-1" d="M956.26,535.24a5.71,5.71,0,1,1,5.46-5.45A5.48,5.48,0,0,1,956.26,535.24Z"/><path class="cls-1" d="M942.32,665.76c-13.24-3.9-14-18.79-10.25-31.41,4-13.54,12.72-21,23.93-20.49l1,.06-.77,8.55-.91-.06c-8.74-.58-14.78,4.57-17.95,15.32-2.33,7.87.74,15.27,7.13,17.21s10.81-4.26,17.66-13.59l1.75-2.38c6.34-8.66,14.23-19.43,26.55-15.8,7.54,2.24,15.94,12.94,11,29.78-3.38,11.41-10.29,19-20,21.83l-1.1.33-.59-8.4.71-.21c5.68-1.68,13-5.63,15.74-14.9,1.62-5.5,1.24-10.16-1.1-13.51a10.51,10.51,0,0,0-7.15-4.42c-5.63-.33-9,4.41-14.73,12.27-.75,1-1.54,2.12-2.37,3.25C964.32,658,954.32,669.31,942.32,665.76Z"/><path class="cls-1" d="M913.36,714.27l-5.86,2.19-.17-1.16a37.28,37.28,0,0,1,2.78-20.17c8.29-18.9,30.51-28.21,48.51-20.31s26.2,30.56,17.9,49.46a37.11,37.11,0,0,1-15.12,17.08l-.93.55-3-7.4.74-.39a28.32,28.32,0,0,0,14.59-17.75,22.92,22.92,0,0,0-2.51-18.13c-4.08-6.75-11.56-11.77-20.53-13.81-16.9-3.85-32,4-35.9,18.62a25.68,25.68,0,0,0-.6,10.48Z"/><path class="cls-1" d="M894.53,766.37c0-.37.05-.73.07-1l-23.5.77,7.83-12.75,16.9-.27a4.44,4.44,0,0,0,3.91-2.29l1-1.61,8.17-13.31-14-8.56,6.39-10.41L961,753.51l-14.54,23.72c-8.7,14.19-26.38,19.83-38.59,12.34l-.65-.4C898.64,783.93,894,775.62,894.53,766.37ZM942,774.5l8.17-13.31L913.3,738.58l-8.16,13.31c-6.66,10.86-.57,21.29,8.43,26.81l.72.44C923.29,784.66,935.35,785.37,942,774.5Z"/><path class="cls-1" d="M851.84,844.65c-15.05-12.67-17.17-35.94-4.64-50.8s35.68-16.6,50.72-3.92,17.22,35.85,4.76,50.64S866.87,857.31,851.84,844.65Zm51.32-28.14c-2-7.67-8-14.89-16.55-19.82-14.9-8.62-30.8-6.34-37.76,5.44a20.54,20.54,0,0,0-2.07,16c2.09,8,8.17,15.36,16.69,20.29,13.28,7.67,27.52,6.26,35.36-3a25,25,0,0,0,2.2-3.1A20.26,20.26,0,0,0,903.16,816.51Z"/><path class="cls-1" d="M789.84,860.56l0-2c-.09-5.46-.08-5.58-.09-5.62l0-.39,32.06-28.93,47,52.13-6.63,6-2.37,2.12-42.94-47.58Z"/><path class="cls-1" d="M749.86,889l.19-2c.5-5.45.52-5.56.53-5.6l0-.39,35.06-25.25,41,57L819.24,918h0l-2.4,1.73-37.48-52Z"/><path class="cls-1" d="M697.2,980.39l32.66-14.89-11.87-26-20.63,9.41.37-1.79c1.12-5.5,1.12-5.5,1.57-5.74L715.48,934l-12.32-27,10.69-4.88,29.2,64-50.41,23Z"/><path class="cls-1" d="M620.23,974.7c-5.84-18.77,4.91-39.51,23.46-45.27s39,5.26,44.8,24-4.82,39.46-23.27,45.2S626.06,993.45,620.23,974.7Zm58.36,4c2.44-7.53,1.26-16.87-3.26-25.6-7.9-15.29-22.51-21.93-34.71-15.76a20.57,20.57,0,0,0-10.37,12.36c-2.54,7.82-1.4,17.32,3.12,26.06,7,13.62,19.79,20.1,31.41,16.48a22.64,22.64,0,0,0,3.51-1.42A20.22,20.22,0,0,0,678.59,978.66Z"/><path class="cls-1" d="M564.64,968.3l.84-.63-15.83-17.39L564.44,948l11.18,12.71a4.44,4.44,0,0,0,4.27,1.48c.65-.11,1.3-.23,1.86-.31l15.43-2.43-2.55-16.19,12.07-1.9,10.88,69.24-27.5,4.32c-16.45,2.58-32.23-7.21-34.46-21.37l-.12-.76C553.94,982.83,557.28,973.91,564.64,968.3Zm24.64,41.43,15.43-2.43L598,964.55,582.55,967C570,969,566,980.37,567.62,990.8l.13.83C569.4,1002.06,576.68,1011.71,589.28,1009.73Z"/><path class="cls-1" d="M427.69,1015.6l6.39-69.88,11.12,1L440.06,1003l32.27-47.78,25.19,47.34L502.15,952l6,.55-6.39,69.84-8.84-.8-25.67-48-29.11,43Z"/><path class="cls-1" d="M353.06,960.52c5.13-19,25.32-30.74,44.09-25.67s30.12,25.32,25,44.3-25.21,30.77-43.89,25.73S347.94,979.5,353.06,960.52Zm47.21,34.63c6.1-5.06,10.1-13.58,11-23.38,1.52-17.16-7.28-30.59-20.89-31.93a20.62,20.62,0,0,0-15.39,4.9c-6.34,5.25-10.46,13.89-11.33,23.7-1.34,15.28,6,27.59,17.71,30.76a25,25,0,0,0,3.74.68A20.28,20.28,0,0,0,400.27,995.15Z"/><path class="cls-1" d="M309.72,924.86l1-.08-3.95-23.15,13.7,6,2.55,16.71a4.43,4.43,0,0,0,2.79,3.56c.61.24,1.21.5,1.73.72l14.28,6.29,6.59-15,11.18,4.91-28.19,64.08L306,977.74c-15.23-6.69-23.23-23.43-17.46-36.55l.31-.7C292.88,931.31,300.49,925.61,309.72,924.86ZM308.09,973l14.29,6.29,17.41-39.58-14.3-6.28c-11.66-5.13-21.16,2.32-25.4,12l-.34.77C295.5,955.82,296.43,967.86,308.09,973Z"/><path class="cls-1" d="M289.38,898.28,257,878.71l7.33-2.94L303,899.12l-36.24,60-2.85-1.71L223,932.74l8.24-2.11,28.29,17.07,10.84-18-32-19.34,7.27-2.68,27.9,16.84Z"/><path class="cls-1" d="M249.86,871.26a5.71,5.71,0,1,1,1.65,7.55A5.48,5.48,0,0,1,249.86,871.26Z"/><path class="cls-1" d="M172.34,818.8c9.61-9.87,23.11-3.58,32.53,5.58,10.1,9.84,12.64,21,6.95,30.7l-.49.82-7.2-4.66.48-.76c4.58-7.46,2.84-15.21-5.18-23-5.88-5.72-13.84-6.47-18.53-1.71s-1.28,11.54,3.78,21.93l1.29,2.66c4.7,9.64,10.54,21.63,1.59,30.81-5.48,5.64-18.86,8.07-31.42-4.16-8.52-8.3-12-17.94-10-27.86l.22-1.12,7.7,3.39-.15.73c-1.16,5.79-1.08,14.11,5.83,20.85,4.1,4,8.41,5.82,12.46,5.3a10.44,10.44,0,0,0,7.23-4.24c2.92-4.82.32-10-4-18.73l-1.78-3.62C169,841.86,163.61,827.76,172.34,818.8Z"/><path class="cls-1" d="M143,770.59l.82-6.21,1.08.39a37.37,37.37,0,0,1,16.54,11.88c12.82,16.17,10.66,40.16-4.74,52.37s-39.24,8.88-52.07-7.3a37.08,37.08,0,0,1-8-21.35l0-1.07,7.94.79v.84a28.33,28.33,0,0,0,8.88,21.19,22.92,22.92,0,0,0,17.19,6.26c7.87-.45,15.81-4.71,21.81-11.69,11.3-13.14,11.44-30.13.33-40.44a26.1,26.1,0,0,0-9-5.42Z"/><path class="cls-1" d="M105.81,729.6l.89.56L117,709.05l7.59,12.88L116.94,737a4.42,4.42,0,0,0,.19,4.52l1,1.61L126,756.55l14.11-8.32,6.2,10.51L86,794.33l-14.13-24c-8.46-14.32-5.17-32.59,7.17-39.87l.65-.39C88.36,725,97.87,724.83,105.81,729.6ZM76.39,767.74l7.93,13.44,37.24-22-7.94-13.45c-6.47-11-18.53-10.46-27.63-5.1l-.72.43C76.18,746.44,69.91,756.76,76.39,767.74Z"/><path class="cls-1" d="M56.72,655.12c18.26-7.35,39.8,1.7,47.05,19.76s-2.11,39.29-20.35,46.63-39.75-1.64-47-19.58S38.48,662.45,56.72,655.12Zm.75,58.53c7.72,1.84,16.93-.1,25.28-5.31,14.62-9.12,20-24.22,12.93-35.89a20.57,20.57,0,0,0-13.17-9.36c-8-1.89-17.4,0-25.75,5.23-13,8.11-18.45,21.35-13.91,32.64a22.48,22.48,0,0,0,1.7,3.4A20.21,20.21,0,0,0,57.47,713.65Z"/><path class="cls-1" d="M71.6,593l1.81.93c4.88,2.46,5,2.53,5,2.54l.33.2L89.4,638.54l-68,17.25-2.21-8.66h0l-.78-3.08,62.1-15.81Z"/><path class="cls-1" d="M65.15,544.43l1.7,1.11c4.59,3,4.68,3.06,4.71,3.08l.31.23,6,42.77-69.5,9.7L7.1,592.23h0l-.4-2.93,63.49-8.9Z"/><path class="cls-1" d="M8.81,455.05,6.72,490.9l28.53,1.66,1.31-22.66L38,471.06c4.34,3.56,4.34,3.56,4.34,4.08l-1,17.76,29.65,1.73-.68,11.73L0,502.28l3.22-55.34Z"/><path class="cls-1" d="M49.63,389.86C69,393.4,82.36,412.55,78.87,431.67s-22.76,32.11-42.1,28.57S4,437.64,7.51,418.62,30.3,386.32,49.63,389.86ZM19,439.76c5.55,5.66,14.38,8.95,24.21,9,17.24.09,29.89-9.78,30.1-23.46a20.56,20.56,0,0,0-6.15-14.93c-5.75-5.88-14.71-9.28-24.55-9.34-15.35-.07-27,8.22-29.2,20.19a22.32,22.32,0,0,0-.36,3.78A20.27,20.27,0,0,0,19,439.76Z"/><path class="cls-1" d="M81.72,343.49c.06.37.11.73.15,1.05l22.79-5.82-4.89,14.15-16.46,3.9A4.47,4.47,0,0,0,80,359.84c-.2.62-.4,1.25-.58,1.78l-5.11,14.77,15.49,5.35-4,11.54-66.2-22.92,9.1-26.29c5.44-15.73,21.49-25.06,35-20.37l.72.25C73.92,327.23,80.22,334.35,81.72,343.49Zm-48.14,2.29-5.1,14.76,40.89,14.14,5.11-14.76c4.16-12-4-20.91-14-24.37l-.79-.27C49.69,331.83,37.75,333.72,33.58,345.78Z"/><path class="cls-1" d="M103.86,200.45l58.8,38.29-6.12,9.34-47.29-30.79,27.18,50.84-53.62.18L125.34,296l-3.29,5.06L63.27,262.79l4.84-7.43,54.46-.27L98.12,209.26Z"/><path class="cls-1" d="M187.27,160.2c14.4,13.37,15.38,36.7,2.15,50.94S153,226,138.61,212.57s-15.44-36.62-2.28-50.78S172.88,146.83,187.27,160.2Zm-52.61,25.58c1.63,7.76,7.31,15.26,15.56,20.58,14.47,9.34,30.44,7.84,38-3.57A20.54,20.54,0,0,0,191,186.9c-1.69-8-7.41-15.72-15.67-21.06-12.88-8.31-27.16-7.59-35.44,1.32a22.29,22.29,0,0,0-2.34,3A20.28,20.28,0,0,0,134.66,185.78Z"/><path class="cls-1" d="M239.12,138.32c-.14.35-.29.68-.42,1L261,146.62l-11.72,9.3-16-5.54a4.41,4.41,0,0,0-4.45.8c-.5.42-1,.84-1.45,1.18l-12.24,9.71,10.19,12.83-9.57,7.6-43.53-54.89,21.8-17.29c13-10.34,31.58-9.59,40.49,1.64l.47.6C241.28,120.41,242.76,129.81,239.12,138.32ZM197.3,114.4l-12.23,9.7L212,158l12.25-9.7c10-7.92,7.82-19.81,1.26-28.08l-.52-.65C218.37,111.28,207.28,106.48,197.3,114.4Z"/><path class="cls-1" d="M272,132.92l32.47-19.45-.83,7.84-38.74,23.22-36-60.13,2.85-1.72,40.95-24.53-2,8.27-28.35,17,10.8,18,32.11-19.22-1.05,7.67-27.94,16.73Z"/><path class="cls-1" d="M314.45,110.66a5.71,5.71,0,1,1-7.44-2.09A5.5,5.5,0,0,1,314.45,110.66Z"/></g></g></svg>