<svg xmlns="http://www.w3.org/2000/svg" width="20.999" height="21" viewBox="0 0 20.999 21">
  <g id="search-interface-symbol" transform="translate(-0.006)">
    <g id="_x34__4_" transform="translate(0.006)">
      <g id="Group_5104" data-name="Group 5104" transform="translate(0)">
        <path id="Path_10530" data-name="Path 10530" d="M20.807,19.857l-5.422-5.335a8.576,8.576,0,0,0,2.292-5.828A8.766,8.766,0,0,0,8.841,0,8.765,8.765,0,0,0,.006,8.695a8.765,8.765,0,0,0,8.835,8.695A8.885,8.885,0,0,0,14.4,15.448L19.845,20.8a.687.687,0,0,0,.961,0A.662.662,0,0,0,20.807,19.857ZM8.841,16.052A7.417,7.417,0,0,1,1.365,8.695,7.417,7.417,0,0,1,8.841,1.338a7.417,7.417,0,0,1,7.476,7.357A7.417,7.417,0,0,1,8.841,16.052Z" transform="translate(-0.006)" fill="#fff"/>
      </g>
    </g>
  </g>
</svg>
