<svg xmlns="http://www.w3.org/2000/svg" xmlns:xlink="http://www.w3.org/1999/xlink" width="79.903" height="73.089" viewBox="0 0 79.903 73.089">
  <defs>
    <linearGradient id="linear-gradient" x1="0.5" y1="0.67" x2="0.5" y2="0.753" gradientUnits="objectBoundingBox">
      <stop offset="0" stop-color="#030504" stop-opacity="0"/>
      <stop offset="1" stop-color="#030504" stop-opacity="0.522"/>
    </linearGradient>
    <linearGradient id="linear-gradient-2" x1="0.5" y1="0.669" x2="0.5" y2="0.753" xlink:href="#linear-gradient"/>
    <linearGradient id="linear-gradient-3" x1="0.488" y1="0.631" x2="-0.513" y2="-1.452" gradientUnits="objectBoundingBox">
      <stop offset="0" stop-color="#030504" stop-opacity="0"/>
      <stop offset="1" stop-color="#030504" stop-opacity="0.4"/>
    </linearGradient>
    <linearGradient id="linear-gradient-4" x1="0.469" y1="0.033" x2="0.247" y2="0.903" gradientUnits="objectBoundingBox">
      <stop offset="0" stop-color="#fff" stop-opacity="0.651"/>
      <stop offset="1" stop-color="#fff" stop-opacity="0"/>
    </linearGradient>
    <linearGradient id="linear-gradient-5" x1="0.243" y1="0.362" x2="0.449" y2="1.123" xlink:href="#linear-gradient-3"/>
    <linearGradient id="linear-gradient-6" x1="-0.044" y1="0.661" x2="0.616" y2="-0.084" xlink:href="#linear-gradient-3"/>
    <linearGradient id="linear-gradient-7" x1="0.378" y1="0.216" x2="0.559" y2="1.076" xlink:href="#linear-gradient-3"/>
    <linearGradient id="linear-gradient-8" x1="0.847" y1="0.052" x2="0.341" y2="0.919" gradientUnits="objectBoundingBox">
      <stop offset="0" stop-color="#b3c950"/>
      <stop offset="1" stop-color="#76a92e"/>
    </linearGradient>
    <linearGradient id="linear-gradient-9" x1="1.33" y1="0.431" x2="0.398" y2="0.482" gradientUnits="objectBoundingBox">
      <stop offset="0" stop-color="#b1c91e"/>
      <stop offset="1" stop-color="#599c32"/>
    </linearGradient>
    <linearGradient id="linear-gradient-10" x1="0.398" y1="0.563" x2="0.17" y2="1.77" gradientUnits="objectBoundingBox">
      <stop offset="0" stop-color="#161614" stop-opacity="0.502"/>
      <stop offset="0.402" stop-color="#161614" stop-opacity="0.145"/>
      <stop offset="1" stop-color="#161614" stop-opacity="0"/>
    </linearGradient>
    <linearGradient id="linear-gradient-11" x1="0.398" y1="0.562" x2="0.171" y2="1.77" gradientUnits="objectBoundingBox">
      <stop offset="0" stop-color="#fff"/>
      <stop offset="1" stop-color="#c1c3e2"/>
    </linearGradient>
    <linearGradient id="linear-gradient-12" x1="-0.915" y1="0.515" x2="1.964" y2="0.474" gradientUnits="objectBoundingBox">
      <stop offset="0" stop-color="#161614" stop-opacity="0.502"/>
      <stop offset="0.038" stop-color="#161614" stop-opacity="0.463"/>
      <stop offset="0.424" stop-color="#161614" stop-opacity="0.318"/>
      <stop offset="1" stop-color="#161614" stop-opacity="0"/>
    </linearGradient>
    <linearGradient id="linear-gradient-13" x1="1.032" y1="-0.031" x2="0.316" y2="0.636" xlink:href="#linear-gradient-3"/>
    <linearGradient id="linear-gradient-14" x1="0.955" y1="-0.019" x2="0.404" y2="0.551" xlink:href="#linear-gradient-3"/>
    <linearGradient id="linear-gradient-15" x1="0.469" y1="0.572" x2="0.516" y2="0.91" xlink:href="#linear-gradient-3"/>
    <linearGradient id="linear-gradient-16" x1="0.407" y1="0.041" x2="0.515" y2="0.921" gradientUnits="objectBoundingBox">
      <stop offset="0" stop-color="#fff" stop-opacity="0.502"/>
      <stop offset="0.019" stop-color="#fff" stop-opacity="0.478"/>
      <stop offset="0.156" stop-color="#fff" stop-opacity="0.333"/>
      <stop offset="0.3" stop-color="#fff" stop-opacity="0.212"/>
      <stop offset="0.451" stop-color="#fff" stop-opacity="0.118"/>
      <stop offset="0.61" stop-color="#fff" stop-opacity="0.051"/>
      <stop offset="0.784" stop-color="#fff" stop-opacity="0.012"/>
      <stop offset="1" stop-color="#fff" stop-opacity="0"/>
    </linearGradient>
    <linearGradient id="linear-gradient-17" x1="0.365" y1="0.139" x2="0.554" y2="1.062" xlink:href="#linear-gradient-3"/>
    <linearGradient id="linear-gradient-18" x1="1.015" y1="0.159" x2="0.292" y2="0.753" gradientUnits="objectBoundingBox">
      <stop offset="0" stop-color="#fff" stop-opacity="0.502"/>
      <stop offset="1" stop-color="#fff" stop-opacity="0"/>
    </linearGradient>
    <linearGradient id="linear-gradient-19" x1="-0.611" y1="0.491" x2="1.484" y2="0.508" xlink:href="#linear-gradient-10"/>
    <linearGradient id="linear-gradient-20" x1="0.96" y1="0.053" x2="0.798" y2="0.211" gradientUnits="objectBoundingBox">
      <stop offset="0" stop-color="#fff" stop-opacity="0.4"/>
      <stop offset="1" stop-color="#fff" stop-opacity="0"/>
    </linearGradient>
    <linearGradient id="linear-gradient-21" x1="0.43" y1="0.987" x2="0.477" y2="0.752" xlink:href="#linear-gradient-10"/>
    <linearGradient id="linear-gradient-22" x1="-0.497" y1="0.496" x2="2.393" y2="0.513" gradientUnits="objectBoundingBox">
      <stop offset="0" stop-color="#161614" stop-opacity="0.502"/>
      <stop offset="1" stop-color="#161614" stop-opacity="0"/>
    </linearGradient>
    <linearGradient id="linear-gradient-23" x1="0.548" y1="0.004" x2="0.427" y2="0.803" xlink:href="#linear-gradient-18"/>
    <linearGradient id="linear-gradient-25" x1="0.829" y1="0.05" x2="0.009" y2="1.282" xlink:href="#linear-gradient-16"/>
    <linearGradient id="linear-gradient-26" x1="0.69" y1="-0.058" x2="0.622" y2="0.143" xlink:href="#linear-gradient-3"/>
    <linearGradient id="linear-gradient-27" x1="0.534" y1="0.268" x2="0.522" y2="0.352" xlink:href="#linear-gradient-3"/>
    <linearGradient id="linear-gradient-28" x1="0.694" y1="0.033" x2="0.484" y2="0.903" xlink:href="#linear-gradient-4"/>
    <linearGradient id="linear-gradient-29" x1="0.535" y1="0.362" x2="0.82" y2="1.123" xlink:href="#linear-gradient-3"/>
    <linearGradient id="linear-gradient-30" x1="0.345" y1="0.661" x2="0.843" y2="-0.084" xlink:href="#linear-gradient-3"/>
    <linearGradient id="linear-gradient-31" x1="0.329" y1="-1.527" x2="0.495" y2="0.339" xlink:href="#linear-gradient-3"/>
    <linearGradient id="linear-gradient-32" x1="0.425" y1="-0.48" x2="0.593" y2="1.347" xlink:href="#linear-gradient-3"/>
  </defs>
  <g id="Shopify" transform="translate(0 -0.001)">
    <g id="Group_5052" data-name="Group 5052" transform="translate(0 0.001)">
      <path id="Path_10533" data-name="Path 10533" d="M17.023,158.164l47.311,9.675,28.742-6.972L56.37,154.121Z" transform="translate(-17.023 -94.751)" fill="#1a1818" opacity="0.05"/>
      <path id="Path_10534" data-name="Path 10534" d="M23.972,159.823l44.875,8.949,26.132-6.036-38.453-5.681Z" transform="translate(-21.066 -96.458)" fill="#1a1818" opacity="0.12"/>
      <g id="Group_5048" data-name="Group 5048" transform="translate(7.213 12.234)">
        <path id="Path_10535" data-name="Path 10535" d="M73.672,53.279c-.445-.087-1.508-2.417-1.618-2.39,0,0-26.029,7.587-26.38,8.007-.385.461-11.405,39.431-11.405,39.431l40.389,7.568Z" transform="translate(-34.269 -46.928)" fill="url(#linear-gradient)"/>
        <path id="Path_10536" data-name="Path 10536" d="M140.091,46.816a.762.762,0,0,0-.239-.435.989.989,0,0,0-.378-.139l-5.7-.425-4.2-4.168a1.241,1.241,0,0,0-.529-.23l.749,58.968,21.884-4.737Z" transform="translate(-89.408 -41.419)" fill="url(#linear-gradient-2)"/>
      </g>
      <path id="Path_10537" data-name="Path 10537" d="M130.843,175.8l23.193.446,9.106-3.124-10.369-2.061Z" transform="translate(-83.239 -104.608)" fill="url(#linear-gradient-3)"/>
      <path id="Path_10538" data-name="Path 10538" d="M129.227,55.336a1.473,1.473,0,0,0,1.908-1.264,2.084,2.084,0,0,0-1.225-2.34A1.473,1.473,0,0,0,128,53,2.083,2.083,0,0,0,129.227,55.336Z" transform="translate(-81.564 -35.139)" fill="#fff" opacity="0.3"/>
      <path id="Path_10539" data-name="Path 10539" d="M87.7,38.685a1.3,1.3,0,0,1-.177-.013,1.512,1.512,0,0,1-1.275-1.379c-.021-.651-.418-16,8.581-19.488a6.185,6.185,0,0,1,6.131.588c2.161,1.53,3.735,4.548,4.682,8.974a38.407,38.407,0,0,1,.782,5.937,1,1,0,0,1-1.191,1.04,1.513,1.513,0,0,1-1.281-1.374c-.108-2.78-1.07-10.476-4.191-12.683a3.716,3.716,0,0,0-3.7-.193c-7.714,2.992-7.348,17.4-7.343,17.545A.985.985,0,0,1,87.7,38.685Z" transform="translate(-57.289 -15.134)" fill="#46474f" opacity="0.62"/>
      <path id="Path_10540" data-name="Path 10540" d="M87.7,38.685a1.3,1.3,0,0,1-.177-.013,1.512,1.512,0,0,1-1.275-1.379c-.021-.651-.418-16,8.581-19.488a6.185,6.185,0,0,1,6.131.588c2.161,1.53,3.735,4.548,4.682,8.974a38.407,38.407,0,0,1,.782,5.937,1,1,0,0,1-1.191,1.04,1.513,1.513,0,0,1-1.281-1.374c-.108-2.78-1.07-10.476-4.191-12.683a3.716,3.716,0,0,0-3.7-.193c-7.714,2.992-7.348,17.4-7.343,17.545A.985.985,0,0,1,87.7,38.685Z" transform="translate(-57.289 -15.134)" fill="#46474f" opacity="0.62"/>
      <path id="Path_10541" data-name="Path 10541" d="M100.886,18.667a5.758,5.758,0,0,0-5.675-.515c-3.655,1.418-6.258,5.2-7.525,10.923a36.728,36.728,0,0,0-.824,8.2.882.882,0,0,0,.244.564.939.939,0,0,0,.552.3.788.788,0,0,0,.112.008.617.617,0,0,0,.638-.653c0-.148-.384-14.822,7.575-17.91a4.223,4.223,0,0,1,4.154.267c3.315,2.346,4.321,10.252,4.429,13.1a.947.947,0,0,0,.8.859.626.626,0,0,0,.743-.65C106.094,32.707,105.635,22.028,100.886,18.667Z" transform="translate(-57.649 -15.355)" fill="#a1a3b7" opacity="0.46"/>
      <path id="Path_10542" data-name="Path 10542" d="M88.082,37.9a.451.451,0,0,1-.066,0,.567.567,0,0,1-.478-.517,36.269,36.269,0,0,1,.818-8.131c1.248-5.645,3.8-9.362,7.376-10.749a5.42,5.42,0,0,1,5.371.465c4.6,3.255,5.049,13.768,5.066,14.214a.374.374,0,0,1-.446.39.567.567,0,0,1-.481-.515c0-.1-.446-10.448-4.588-13.379a4.511,4.511,0,0,0-4.458-.317c-8.12,3.149-7.734,18-7.73,18.152A.369.369,0,0,1,88.082,37.9Z" transform="translate(-58.041 -15.563)" fill="#a1a3b7" opacity="0.46"/>
      <path id="Path_10543" data-name="Path 10543" d="M93.25,34.8a19.027,19.027,0,0,0,.935-1.882,3.218,3.218,0,0,1-3.461,2.026A3.718,3.718,0,0,0,93.25,34.8Z" transform="translate(-59.899 -24.24)" fill="#46474f" opacity="0.62"/>
      <path id="Path_10544" data-name="Path 10544" d="M91.211,40.951a19.821,19.821,0,0,0,.675-2.022,3.081,3.081,0,0,1-3.11,2.472A3.5,3.5,0,0,0,91.211,40.951Z" transform="translate(-58.766 -27.737)" fill="#46474f" opacity="0.62"/>
      <path id="Path_10545" data-name="Path 10545" d="M89.948,47.235a20.812,20.812,0,0,0,.461-2.111,2.959,2.959,0,0,1-2.8,2.8A3.338,3.338,0,0,0,89.948,47.235Z" transform="translate(-58.087 -31.341)" fill="#46474f" opacity="0.62"/>
      <path id="Path_10546" data-name="Path 10546" d="M127.524,28.113c-.326-.733-.688-1.455-1.075-2.161.112.263,1.358,2.575-.023,4.253A2.977,2.977,0,0,0,127.524,28.113Z" transform="translate(-80.67 -20.187)" fill="#46474f" opacity="0.62"/>
      <path id="Path_10547" data-name="Path 10547" d="M120.892,20.19c-.646-.518-1.313-1.006-1.991-1.466.228.188,2.431,1.706,2.3,4.018A3.749,3.749,0,0,0,120.892,20.19Z" transform="translate(-76.292 -15.982)" fill="#46474f" opacity="0.62"/>
      <path id="Path_10548" data-name="Path 10548" d="M129.5,36.975c-.186-.757-.411-1.511-.665-2.253.062.271.872,2.7-.861,4.028A2.921,2.921,0,0,0,129.5,36.975Z" transform="translate(-81.572 -25.289)" fill="#46474f" opacity="0.62"/>
      <path id="Path_10549" data-name="Path 10549" d="M131.258,46.127c-.091-.758-.222-1.517-.384-2.269.028.27.536,2.728-1.392,3.8A2.953,2.953,0,0,0,131.258,46.127Z" transform="translate(-82.447 -30.604)" fill="#46474f" opacity="0.62"/>
      <path id="Path_10550" data-name="Path 10550" d="M89.183,54.333a21.862,21.862,0,0,0,.193-2.194,3.2,3.2,0,0,1-2.383,3.167A3.172,3.172,0,0,0,89.183,54.333Z" transform="translate(-57.729 -35.422)" fill="#46474f" opacity="0.62"/>
      <path id="Path_10551" data-name="Path 10551" d="M96.014,29.831a18.373,18.373,0,0,0,1.336-1.592,3.827,3.827,0,0,1-3.929,1.225A4.1,4.1,0,0,0,96.014,29.831Z" transform="translate(-61.468 -21.518)" fill="#46474f" opacity="0.62"/>
      <path id="Path_10552" data-name="Path 10552" d="M99.695,25.792a18.806,18.806,0,0,0,1.641-1.288,4.125,4.125,0,0,1-4.208.489A4.416,4.416,0,0,0,99.695,25.792Z" transform="translate(-63.624 -19.345)" fill="#46474f" opacity="0.62"/>
      <path id="Path_10553" data-name="Path 10553" d="M105.319,22.289a20.388,20.388,0,0,0,2.029-.711,4.725,4.725,0,0,1-4.389-.738A4.775,4.775,0,0,0,105.319,22.289Z" transform="translate(-67.017 -17.213)" fill="#46474f" opacity="0.62"/>
      <path id="Path_10554" data-name="Path 10554" d="M111.549,20.248c.585.083,1.168.136,1.744.164a4.178,4.178,0,0,1-3.054-1.814A3.6,3.6,0,0,0,111.549,20.248Z" transform="translate(-71.252 -15.909)" fill="#46474f" opacity="0.62"/>
      <path id="Path_10555" data-name="Path 10555" d="M118.857,22.054c.43.458.88.9,1.342,1.318a3.94,3.94,0,0,1-1.248-3.21A2.614,2.614,0,0,0,118.857,22.054Z" transform="translate(-76.184 -16.819)" fill="#46474f" opacity="0.62"/>
      <path id="Path_10556" data-name="Path 10556" d="M105.647,32.94c-.017-.44-.462-10.831-4.946-14.005a4.772,4.772,0,0,0-2.8-.905,6.5,6.5,0,0,0-2.338.477c-3.518,1.365-6.03,5.036-7.265,10.619a36.155,36.155,0,0,0-.813,8.08.284.284,0,0,0,.239.258l.033,0a.186.186,0,0,0,.191-.2c-.005-.151-.391-15.139,7.845-18.334a4.763,4.763,0,0,1,4.686.353c4.26,3.014,4.7,13.482,4.708,13.588a.285.285,0,0,0,.241.258l.031,0A.186.186,0,0,0,105.647,32.94Z" transform="translate(-58.009 -15.579)" opacity="0.74" fill="url(#linear-gradient-4)"/>
      <g id="Group_5049" data-name="Group 5049" transform="translate(39.828 2.135)">
        <path id="Path_10557" data-name="Path 10557" d="M120.772,27.372c-.946-4.425-2.521-7.444-4.682-8.974a5.859,5.859,0,0,0-3.839-1.113,5.9,5.9,0,0,1,3.078,1.113c2.161,1.53,3.736,4.548,4.682,8.974a38.466,38.466,0,0,1,.782,5.937.973.973,0,0,1-.652.989,1.34,1.34,0,0,0,.223.051,1,1,0,0,0,1.191-1.04A38.407,38.407,0,0,0,120.772,27.372Z" transform="translate(-112.251 -17.273)" fill="url(#linear-gradient-5)"/>
      </g>
      <path id="Path_10558" data-name="Path 10558" d="M96.784,23.491c-7.714,2.992-7.348,17.4-7.343,17.545a.973.973,0,0,1-.652.982,1.389,1.389,0,0,0,.215.05,1.3,1.3,0,0,0,.177.013A.985.985,0,0,0,90.2,41.036c-.005-.145-.371-14.553,7.343-17.545a5.562,5.562,0,0,1,1.462-.368A4.744,4.744,0,0,0,96.784,23.491Z" transform="translate(-58.774 -18.53)" fill="url(#linear-gradient-6)"/>
      <path id="Path_10559" data-name="Path 10559" d="M87.7,38.685a1.3,1.3,0,0,1-.177-.013,1.512,1.512,0,0,1-1.275-1.379c-.021-.651-.418-16,8.581-19.488a6.185,6.185,0,0,1,6.131.588c2.161,1.53,3.735,4.548,4.682,8.974a38.407,38.407,0,0,1,.782,5.937,1,1,0,0,1-1.191,1.04,1.513,1.513,0,0,1-1.281-1.374c-.108-2.78-1.07-10.476-4.191-12.683a3.716,3.716,0,0,0-3.7-.193c-7.714,2.992-7.348,17.4-7.343,17.545A.985.985,0,0,1,87.7,38.685Z" transform="translate(-57.289 -15.134)" fill="url(#linear-gradient-7)"/>
      <path id="Path_10560" data-name="Path 10560" d="M76.757,32.424,41.952,43.2a5.663,5.663,0,0,0-1.844.844,3.967,3.967,0,0,0-.458,1.706l-5.38,41.5,40.389,7.568,3.11-62.428A2.578,2.578,0,0,0,76.757,32.424Z" transform="translate(-27.056 -23.911)" fill="url(#linear-gradient-8)"/>
      <path id="Path_10561" data-name="Path 10561" d="M144.991,37.841a.76.76,0,0,0-.24-.435.987.987,0,0,0-.378-.139l-5.7-.425-4.195-4.168a1.246,1.246,0,0,0-.529-.23l-3.11,62.429,21.884-4.737Z" transform="translate(-83.236 -23.964)" fill="url(#linear-gradient-9)"/>
      <path id="Path_10562" data-name="Path 10562" d="M74.744,88.2a13.56,13.56,0,0,0-2.1-2.215A21.158,21.158,0,0,0,70.332,84.3a15.1,15.1,0,0,1-1.432-1,6.779,6.779,0,0,1-.994-.957,3.42,3.42,0,0,1-.573-.959,2.514,2.514,0,0,1-.161-1,3.248,3.248,0,0,1,.3-1.268,2.933,2.933,0,0,1,.753-.977,3.708,3.708,0,0,1,1.165-.657,5.578,5.578,0,0,1,1.542-.3,11.11,11.11,0,0,1,1.792.041,12.041,12.041,0,0,1,1.632.285,12.9,12.9,0,0,1,1.412.433c.428.159.807.326,1.128.481l2.694-8.027a7.945,7.945,0,0,0-1.448-.551,12.9,12.9,0,0,0-1.872-.373,17,17,0,0,0-2.2-.13,19.6,19.6,0,0,0-2.445.168,15.565,15.565,0,0,0-4.95,1.474,12.648,12.648,0,0,0-3.641,2.706A11.96,11.96,0,0,0,60.7,77.364a13.611,13.611,0,0,0-.949,4.52,9.247,9.247,0,0,0,.269,2.717,8.863,8.863,0,0,0,.967,2.321,10.969,10.969,0,0,0,1.529,1.994,15.635,15.635,0,0,0,1.959,1.716,14.932,14.932,0,0,1,1.461,1.2,6.731,6.731,0,0,1,.977,1.131,3.73,3.73,0,0,1,.653,2.335A3.114,3.114,0,0,1,67.3,96.46a2.456,2.456,0,0,1-.685.891,2.6,2.6,0,0,1-1.075.508,3.885,3.885,0,0,1-1.43.031A8.591,8.591,0,0,1,62.3,97.4a13.166,13.166,0,0,1-1.689-.8,16.57,16.57,0,0,1-1.457-.919c-.434-.3-.815-.6-1.126-.866l-1.844,6.121a7.563,7.563,0,0,0,1.153,1.161,11.971,11.971,0,0,0,1.588,1.095,15.237,15.237,0,0,0,1.957.954,16.274,16.274,0,0,0,2.251.724l.04.009.039.009.04.009.04.009a13.8,13.8,0,0,0,4.8.257,9.8,9.8,0,0,0,4.224-1.56,9.237,9.237,0,0,0,3.073-3.532A13.3,13.3,0,0,0,76.719,94.6a9.834,9.834,0,0,0-.476-3.546A10.1,10.1,0,0,0,74.744,88.2Z" transform="translate(-39.805 -45.428)" opacity="0.47" fill="url(#linear-gradient-10)"/>
      <path id="Path_10563" data-name="Path 10563" d="M75.667,89.211A13.527,13.527,0,0,0,73.566,87a21.259,21.259,0,0,0-2.311-1.691,14.914,14.914,0,0,1-1.432-1,6.76,6.76,0,0,1-.994-.957,3.409,3.409,0,0,1-.573-.959,2.508,2.508,0,0,1-.161-1,3.261,3.261,0,0,1,.3-1.268,2.927,2.927,0,0,1,.754-.977,3.7,3.7,0,0,1,1.165-.657,5.548,5.548,0,0,1,1.542-.3,11.106,11.106,0,0,1,1.791.041,12.074,12.074,0,0,1,1.632.285,12.883,12.883,0,0,1,1.412.434c.429.159.808.325,1.128.481L80.515,71.4a7.958,7.958,0,0,0-1.448-.551,12.909,12.909,0,0,0-1.872-.373,16.859,16.859,0,0,0-2.2-.13,19.523,19.523,0,0,0-2.446.168A15.569,15.569,0,0,0,67.6,71.989a12.659,12.659,0,0,0-3.641,2.706,11.974,11.974,0,0,0-2.329,3.678,13.627,13.627,0,0,0-.949,4.52,9.25,9.25,0,0,0,.27,2.717,8.853,8.853,0,0,0,.967,2.321,11,11,0,0,0,1.53,1.995A15.665,15.665,0,0,0,65.4,91.64a14.831,14.831,0,0,1,1.461,1.2,6.712,6.712,0,0,1,.977,1.131,3.885,3.885,0,0,1,.527,1.132,3.845,3.845,0,0,1,.126,1.2,3.1,3.1,0,0,1-.269,1.164,2.448,2.448,0,0,1-.685.891,2.585,2.585,0,0,1-1.075.509,3.889,3.889,0,0,1-1.431.031,8.622,8.622,0,0,1-1.81-.491,13.2,13.2,0,0,1-1.689-.8,16.841,16.841,0,0,1-1.457-.918c-.434-.3-.815-.6-1.125-.866l-1.845,6.121a7.561,7.561,0,0,0,1.153,1.16,11.962,11.962,0,0,0,1.588,1.1,15.257,15.257,0,0,0,1.956.954,16.218,16.218,0,0,0,2.251.724l.04.009.04.009.04.008.04.009a13.813,13.813,0,0,0,4.8.257,9.8,9.8,0,0,0,4.224-1.56,9.231,9.231,0,0,0,3.072-3.531,13.312,13.312,0,0,0,1.328-5.472,9.813,9.813,0,0,0-.477-3.545A10.087,10.087,0,0,0,75.667,89.211Z" transform="translate(-40.342 -46.014)" fill="url(#linear-gradient-11)"/>
      <path id="Path_10564" data-name="Path 10564" d="M140.062,83.225l-1.39-46.385-.238-.233.66,45.975s-5.789,8.783-6.662,8.527c-1.279-.374,2.495-57.993,2.495-57.993l-.428-.425a1.229,1.229,0,0,0-.552-.247l-3.066,61.55h0l-.044.878,1.082-1.366h0Z" transform="translate(-83.236 -23.964)" opacity="0.41" fill="url(#linear-gradient-12)"/>
      <path id="Path_10565" data-name="Path 10565" d="M112.959,37.771A39.331,39.331,0,0,1,111.4,42.6a.926.926,0,0,0,.672,1.374,1.67,1.67,0,0,0,1.652-1.039A43.66,43.66,0,0,0,115.578,37c0-.013.005-.026.009-.039Z" transform="translate(-71.869 -26.59)" fill="url(#linear-gradient-13)"/>
      <path id="Path_10566" data-name="Path 10566" d="M68.479,51.352c-.578,1.235-1.158,2.313-1.581,3.031a.927.927,0,0,0,.463,1.457,1.669,1.669,0,0,0,1.787-.786,43.981,43.981,0,0,0,2.306-4.623Z" transform="translate(-45.933 -34.428)" fill="url(#linear-gradient-14)"/>
      <path id="Path_10567" data-name="Path 10567" d="M130.867,165.507l9.208-11.646,12.7,6.91Z" transform="translate(-83.253 -94.6)" opacity="0.32" fill="url(#linear-gradient-15)"/>
      <path id="Path_10568" data-name="Path 10568" d="M130.839,165.517l9.106-11.647,12.814,6.907Z" transform="translate(-83.237 -94.605)" opacity="0.19" fill="url(#linear-gradient-16)"/>
      <path id="Path_10569" data-name="Path 10569" d="M130.839,165.517l9.106-11.647,12.814,6.907Z" transform="translate(-83.237 -94.605)" opacity="0.19" fill="url(#linear-gradient-17)"/>
      <path id="Path_10570" data-name="Path 10570" d="M75.4,62.3a56.274,56.274,0,0,1,9.557,20.221l2.5-50.128a2.592,2.592,0,0,0-1.011.035l-34.8,10.778s-.333.095-.722.239C59.71,46.492,68.543,53,75.4,62.3Z" transform="translate(-36.738 -23.914)" opacity="0.6" fill="url(#linear-gradient-18)"/>
      <path id="Path_10571" data-name="Path 10571" d="M155.671,43.546a.7.7,0,0,1,.218.423l7.652,52.285-12.582-6.911-1.39-46.383,5.625.419A.806.806,0,0,1,155.671,43.546Z" transform="translate(-94.133 -30.082)" fill="url(#linear-gradient-19)"/>
      <path id="Path_10572" data-name="Path 10572" d="M154.748,43.659a.881.881,0,0,1,.455.189.785.785,0,0,1,.24.4l7.528,51.692.57.313-7.652-52.285a.7.7,0,0,0-.218-.423.806.806,0,0,0-.477-.167l-5.625-.419Z" transform="translate(-94.133 -30.082)" fill="url(#linear-gradient-20)"/>
      <path id="Path_10573" data-name="Path 10573" d="M34.269,114.582l40.389,7.568,1.988-42.819-38.186.288Z" transform="translate(-27.056 -51.241)" fill="url(#linear-gradient-21)"/>
      <path id="Path_10574" data-name="Path 10574" d="M66.693,60.362a1.959,1.959,0,1,0-.813-2.341A1.77,1.77,0,0,0,66.693,60.362Z" transform="translate(-45.364 -38.062)" fill="#fff" opacity="0.3"/>
      <path id="Path_10575" data-name="Path 10575" d="M66.693,59.27a1.959,1.959,0,1,0-.813-2.341A1.77,1.77,0,0,0,66.693,59.27Z" transform="translate(-45.364 -37.427)" fill="#1a1818" opacity="0.89"/>
      <path id="Path_10576" data-name="Path 10576" d="M138.672,36.839,134.5,32.691a1.229,1.229,0,0,0-.552-.247l-3.11,62.429,9.224-11.648Z" transform="translate(-83.236 -23.964)" fill="url(#linear-gradient-22)"/>
      <path id="Path_10577" data-name="Path 10577" d="M84.774,32.429l-34.8,10.778a5.663,5.663,0,0,0-1.844.844.954.954,0,0,0-.074.1l35.1-9.706c.287-.065,1-.335.893,1.7L81.917,94.681l.758.142,3.11-62.429A2.592,2.592,0,0,0,84.774,32.429Z" transform="translate(-35.074 -23.914)" fill="url(#linear-gradient-23)"/>
      <path id="Path_10578" data-name="Path 10578" d="M84.774,32.429l-34.8,10.778a5.663,5.663,0,0,0-1.844.844.954.954,0,0,0-.074.1l8.132-2.248,27.951-8.655a2.592,2.592,0,0,1,1.011-.035L82.082,94.712l.594.111,3.11-62.429A2.592,2.592,0,0,0,84.774,32.429Z" transform="translate(-35.074 -23.914)" fill="url(#linear-gradient-23)"/>
      <path id="Path_10579" data-name="Path 10579" d="M141.909,154.873l-1.85-1.012-9.22,11.646.51-.111s8.138-10.455,8.873-10.8C140.714,154.372,141.909,154.873,141.909,154.873Z" transform="translate(-83.237 -94.6)" opacity="0.32" fill="url(#linear-gradient-25)"/>
      <path id="Path_10580" data-name="Path 10580" d="M130.838,165.508l9.22-11.647A103.678,103.678,0,0,0,130.838,165.508Z" transform="translate(-83.236 -94.6)" opacity="0.57" fill="url(#linear-gradient-26)"/>
      <path id="Path_10581" data-name="Path 10581" d="M165.583,160.772l-12.7-6.911S154.333,154.106,165.583,160.772Z" transform="translate(-96.061 -94.6)" opacity="0.46" fill="url(#linear-gradient-27)"/>
      <path id="Path_10582" data-name="Path 10582" d="M110.754,50.239a1.959,1.959,0,1,0-.813-2.341A1.77,1.77,0,0,0,110.754,50.239Z" transform="translate(-70.997 -32.173)" fill="#fff" opacity="0.3"/>
      <path id="Path_10583" data-name="Path 10583" d="M110.754,49.147a1.959,1.959,0,1,0-.813-2.341A1.771,1.771,0,0,0,110.754,49.147Z" transform="translate(-70.997 -31.538)" fill="#1a1818" opacity="0.89"/>
      <path id="Path_10584" data-name="Path 10584" d="M67.715,33.588a1.244,1.244,0,0,1-.175-.013A1.218,1.218,0,0,1,66.508,32.2c.093-.651,2.4-16,12.017-19.488,2.427-.881,4.455-.683,6.028.588,1.89,1.529,2.934,4.548,3.1,8.974a37.759,37.759,0,0,1-.265,5.937,1.218,1.218,0,0,1-2.413-.334c.383-2.78.777-10.476-1.954-12.683-.875-.707-2.073-.77-3.663-.193C71.114,17.991,68.94,32.4,68.919,32.544A1.219,1.219,0,0,1,67.715,33.588Z" transform="translate(-45.804 -12.169)" fill="#46474f"/>
      <path id="Path_10585" data-name="Path 10585" d="M84.536,13.57c-1.429-1.155-3.33-1.333-5.584-.515-3.906,1.418-7.174,5.2-9.451,10.923a40.1,40.1,0,0,0-2.27,8.2.761.761,0,0,0,.644.862.7.7,0,0,0,.11.008.765.765,0,0,0,.753-.652c.021-.148,2.23-14.822,10.733-17.91,1.721-.624,3.112-.537,4.107.267,2.9,2.346,2.514,10.252,2.119,13.1a.761.761,0,0,0,1.509.209C87.268,27.61,88.693,16.931,84.536,13.57Z" transform="translate(-46.228 -12.39)" fill="#a1a3b7" opacity="0.46"/>
      <path id="Path_10586" data-name="Path 10586" d="M68.409,32.8a.432.432,0,0,1-.065,0,.456.456,0,0,1-.387-.517,39.619,39.619,0,0,1,2.251-8.131c2.243-5.645,5.45-9.362,9.272-10.749,2.158-.784,3.938-.627,5.289.465,4.025,3.255,2.621,13.768,2.559,14.214a.457.457,0,0,1-.905-.125c.014-.1,1.4-10.448-2.229-13.379-1.085-.877-2.566-.983-4.4-.317-8.675,3.149-10.909,18-10.931,18.152A.457.457,0,0,1,68.409,32.8Z" transform="translate(-46.651 -12.598)" fill="#a1a3b7" opacity="0.81"/>
      <path id="Path_10587" data-name="Path 10587" d="M78.374,29.7c.454-.608.876-1.239,1.268-1.882a3.964,3.964,0,0,1-3.818,2.026A3.754,3.754,0,0,0,78.374,29.7Z" transform="translate(-51.231 -21.275)" fill="#46474f" opacity="0.42"/>
      <path id="Path_10588" data-name="Path 10588" d="M75.142,35.854c.377-.659.72-1.336,1.031-2.022A3.855,3.855,0,0,1,72.627,36.3,3.757,3.757,0,0,0,75.142,35.854Z" transform="translate(-49.371 -24.772)" fill="#46474f" opacity="0.42"/>
      <path id="Path_10589" data-name="Path 10589" d="M72.69,42.138c.312-.692.589-1.4.833-2.111a3.7,3.7,0,0,1-3.294,2.8A3.758,3.758,0,0,0,72.69,42.138Z" transform="translate(-47.977 -28.376)" fill="#46474f" opacity="0.42"/>
      <path id="Path_10590" data-name="Path 10590" d="M113.281,23.016c-.2-.733-.431-1.455-.693-2.161a4.212,4.212,0,0,1-.773,4.253A3.756,3.756,0,0,0,113.281,23.016Z" transform="translate(-72.169 -17.222)" fill="#46474f" opacity="0.62"/>
      <path id="Path_10591" data-name="Path 10591" d="M109.09,15.093c-.555-.518-1.136-1.006-1.732-1.466a4.211,4.211,0,0,1,1.6,4.017A3.757,3.757,0,0,0,109.09,15.093Z" transform="translate(-69.576 -13.017)" fill="#46474f" opacity="0.62"/>
      <path id="Path_10592" data-name="Path 10592" d="M113.755,31.878c-.053-.757-.144-1.511-.268-2.253a4.212,4.212,0,0,1-1.571,4.027A3.754,3.754,0,0,0,113.755,31.878Z" transform="translate(-72.228 -22.324)" fill="#46474f" opacity="0.62"/>
      <path id="Path_10593" data-name="Path 10593" d="M113.951,41.03c.042-.758.045-1.517.016-2.269a4.211,4.211,0,0,1-2.062,3.8A3.757,3.757,0,0,0,113.951,41.03Z" transform="translate(-72.222 -27.639)" fill="#46474f" opacity="0.62"/>
      <path id="Path_10594" data-name="Path 10594" d="M70.584,49.236c.229-.724.421-1.458.579-2.194a3.991,3.991,0,0,1-2.941,3.167A3.756,3.756,0,0,0,70.584,49.236Z" transform="translate(-46.809 -32.457)" fill="#46474f" opacity="0.42"/>
      <path id="Path_10595" data-name="Path 10595" d="M82.211,24.734c.566-.505,1.105-1.04,1.617-1.592a4.462,4.462,0,0,1-4.146,1.225A3.754,3.754,0,0,0,82.211,24.734Z" transform="translate(-53.476 -18.553)" fill="#46474f" opacity="0.42"/>
      <path id="Path_10596" data-name="Path 10596" d="M86.784,20.695c.645-.4,1.269-.833,1.868-1.288a4.465,4.465,0,0,1-4.3.489A3.758,3.758,0,0,0,86.784,20.695Z" transform="translate(-56.195 -16.38)" fill="#46474f" opacity="0.42"/>
      <path id="Path_10597" data-name="Path 10597" d="M93.146,17.192c.732-.2,1.452-.443,2.156-.711a4.464,4.464,0,0,1-4.26-.738A3.757,3.757,0,0,0,93.146,17.192Z" transform="translate(-60.084 -14.248)" fill="#46474f" opacity="0.62"/>
      <path id="Path_10598" data-name="Path 10598" d="M99.737,15.151c.57.083,1.144.136,1.715.164A3.388,3.388,0,0,1,98.717,13.5,2.854,2.854,0,0,0,99.737,15.151Z" transform="translate(-64.549 -12.944)" fill="#46474f" opacity="0.62"/>
      <path id="Path_10599" data-name="Path 10599" d="M106.4,16.957c.349.459.721.9,1.109,1.319a3.389,3.389,0,0,1-.681-3.21A2.852,2.852,0,0,0,106.4,16.957Z" transform="translate(-69 -13.854)" fill="#46474f" opacity="0.62"/>
      <path id="Path_10600" data-name="Path 10600" d="M86.9,27.843c.061-.441,1.448-10.831-2.477-14.005a4.1,4.1,0,0,0-2.645-.905,7.177,7.177,0,0,0-2.422.477c-3.759,1.365-6.919,5.036-9.138,10.619a39.527,39.527,0,0,0-2.238,8.08.229.229,0,0,0,.194.258l.033,0a.23.23,0,0,0,.226-.2c.022-.151,2.279-15.139,11.079-18.334,1.908-.693,3.481-.571,4.623.353,3.728,3.014,2.327,13.482,2.312,13.588a.229.229,0,0,0,.194.257l.031,0A.23.23,0,0,0,86.9,27.843Z" transform="translate(-46.666 -12.613)" fill="url(#linear-gradient-28)"/>
      <g id="Group_5050" data-name="Group 5050" transform="translate(35.105 0.003)">
        <path id="Path_10601" data-name="Path 10601" d="M107.7,22.275c-.166-4.425-1.209-7.445-3.1-8.974a5.1,5.1,0,0,0-3.643-1.113A4.984,4.984,0,0,1,103.84,13.3c1.89,1.529,2.933,4.548,3.1,8.974a37.818,37.818,0,0,1-.265,5.937,1.217,1.217,0,0,1-.826.989,1.192,1.192,0,0,0,.214.051,1.218,1.218,0,0,0,1.373-1.039A37.757,37.757,0,0,0,107.7,22.275Z" transform="translate(-100.958 -12.176)" fill="url(#linear-gradient-29)"/>
      </g>
      <path id="Path_10602" data-name="Path 10602" d="M79.76,18.394c-8.241,2.992-10.416,17.4-10.437,17.545a1.217,1.217,0,0,1-.825.982,1.183,1.183,0,0,0,.382.062,1.219,1.219,0,0,0,1.2-1.044c.021-.145,2.2-14.553,10.437-17.545a6.276,6.276,0,0,1,1.527-.368A5.128,5.128,0,0,0,79.76,18.394Z" transform="translate(-46.969 -15.564)" fill="url(#linear-gradient-30)"/>
      <g id="Group_5051" data-name="Group 5051" transform="translate(20.691 14.378)" opacity="0.45">
        <path id="Path_10603" data-name="Path 10603" d="M67.59,57.979a1.442,1.442,0,0,1-.859-.947c-.14.708-.208,1.164-.223,1.264a1.218,1.218,0,0,0,1.032,1.379,1.245,1.245,0,0,0,.175.013,1.219,1.219,0,0,0,1.2-1.044c0-.023.059-.393.182-1.013A1.514,1.514,0,0,1,67.59,57.979Z" transform="translate(-66.495 -52.646)" fill="url(#linear-gradient-31)"/>
        <path id="Path_10604" data-name="Path 10604" d="M111.575,47.272a1.391,1.391,0,0,1-.772-.726c-.043.511-.094.962-.144,1.327a1.218,1.218,0,0,0,2.413.334c.007-.049.079-.578.149-1.414A1.559,1.559,0,0,1,111.575,47.272Z" transform="translate(-92.182 -46.546)" fill="url(#linear-gradient-32)"/>
      </g>
    </g>
  </g>
</svg>
