<svg xmlns="http://www.w3.org/2000/svg" width="62.377" height="70.605" viewBox="0 0 62.377 70.605">
  <g id="shopify" transform="translate(0 0)" opacity="0.19">
    <path id="Path_10674" data-name="Path 10674" d="M72.389,8.236l-2.114.654A14.755,14.755,0,0,0,69.263,6.4c-1.5-2.858-3.692-4.371-6.343-4.375h-.009c-.184,0-.367.017-.55.034-.078-.094-.157-.187-.24-.276A5.558,5.558,0,0,0,57.711,0c-3.425.1-6.833,2.571-9.6,6.963a27.578,27.578,0,0,0-3.845,9.979l-6.741,2.088c-1.984.623-2.047.685-2.307,2.555C35.022,23,29.83,63.154,29.83,63.154L72.91,70.6V8.148a2.5,2.5,0,0,0-.521.088Zm-9.948,3.08-7.265,2.25a17.228,17.228,0,0,1,3.668-7.12,7.345,7.345,0,0,1,2.467-1.8,16.326,16.326,0,0,1,1.13,6.666ZM57.776,2.281a3.5,3.5,0,0,1,2.059.54,9.916,9.916,0,0,0-2.659,2.071,19.943,19.943,0,0,0-4.505,9.45L46.7,16.189C47.881,10.687,52.492,2.433,57.776,2.281ZM51.114,33.615c.231,3.665,9.873,4.466,10.415,13.05.426,6.754-3.582,11.373-9.358,11.738a14.022,14.022,0,0,1-10.748-3.652L42.891,48.5s3.841,2.9,6.915,2.7a2.716,2.716,0,0,0,2.653-2.915c-.3-4.781-8.153-4.5-8.649-12.355-.417-6.611,3.924-13.309,13.5-13.914a11.8,11.8,0,0,1,5.581.709L60.7,30.926a12.433,12.433,0,0,0-5.34-.93c-4.248.268-4.293,2.947-4.25,3.619Zm13.6-23a18.7,18.7,0,0,0-1.04-6.231c2.6.492,3.877,3.432,4.417,5.185Z" transform="translate(-29.83 0)" fill="#fff"/>
    <path id="Path_10675" data-name="Path 10675" d="M352.567,125.636l17.872-4.442s-7.695-52.025-7.743-52.382a.685.685,0,0,0-.619-.576c-.258-.022-5.289-.1-5.289-.1s-3.068-2.979-4.22-4.106v61.6Z" transform="translate(-308.062 -55.202)" fill="#fff"/>
  </g>
</svg>
