<svg xmlns="http://www.w3.org/2000/svg" xmlns:xlink="http://www.w3.org/1999/xlink" width="74.218" height="74.214" viewBox="0 0 74.218 74.214">
  <defs>
    <linearGradient id="linear-gradient" x1="0.115" y1="0.115" x2="0.915" y2="0.915" gradientUnits="objectBoundingBox">
      <stop offset="0" stop-color="#feeac2"/>
      <stop offset="0.252" stop-color="#fbd382"/>
      <stop offset="0.555" stop-color="#fbc965"/>
      <stop offset="0.815" stop-color="#f8bf4d"/>
      <stop offset="1" stop-color="#fdb627"/>
    </linearGradient>
  </defs>
  <g id="happiness" transform="translate(0 -0.014)">
    <path id="Path_10776" data-name="Path 10776" d="M135.531,302.358a18.39,18.39,0,0,1-14.561-7.159,34.648,34.648,0,0,1-5.863,9.06,42.022,42.022,0,0,0,5.6,2.325v17.868a2.174,2.174,0,0,0,2.174,2.174h25.31a2.174,2.174,0,0,0,2.174-2.174V306.584a42.021,42.021,0,0,0,5.6-2.325,34.651,34.651,0,0,1-5.863-9.06A18.389,18.389,0,0,1,135.531,302.358Z" transform="translate(-98.421 -252.398)" fill="url(#linear-gradient)"/>
    <path id="Path_10777" data-name="Path 10777" d="M394.746,193.65a6.6,6.6,0,0,0-4.427-3.742l-.2-.05a6.677,6.677,0,0,0-7.539,3.355,16.8,16.8,0,0,1-3.675,4.535,21.885,21.885,0,0,1-3.37,2.472,31.178,31.178,0,0,0,7.017,11.6,32.9,32.9,0,0,0,11.985-12.328,6.653,6.653,0,0,0,.206-5.84Z" transform="translate(-321.104 -162.149)" fill="url(#linear-gradient)"/>
    <path id="Path_10778" data-name="Path 10778" d="M19.784,200.22a21.9,21.9,0,0,1-3.37-2.472,16.792,16.792,0,0,1-3.675-4.536A6.676,6.676,0,0,0,5.2,189.857l-.2.05a6.66,6.66,0,0,0-4.222,9.582,32.9,32.9,0,0,0,11.985,12.328A31.181,31.181,0,0,0,19.784,200.22Z" transform="translate(0 -162.148)" fill="url(#linear-gradient)"/>
    <path id="Path_10779" data-name="Path 10779" d="M173.042,120.514a14.066,14.066,0,1,0,14.066,14.066A14.081,14.081,0,0,0,173.042,120.514Zm3.907,15.112a5.526,5.526,0,0,1-7.815,0,2.174,2.174,0,0,1,3.075-3.075,1.177,1.177,0,0,0,1.665,0,2.174,2.174,0,0,1,3.075,3.075Z" transform="translate(-135.932 -103.033)" fill="url(#linear-gradient)"/>
    <path id="Path_10780" data-name="Path 10780" d="M243.187,9.6a2.174,2.174,0,0,0,2.174-2.174V2.188a2.174,2.174,0,0,0-4.349,0V7.424A2.174,2.174,0,0,0,243.187,9.6Z" transform="translate(-206.078)" fill="url(#linear-gradient)"/>
    <path id="Path_10781" data-name="Path 10781" d="M147.571,42.137a2.174,2.174,0,0,0,3.075-3.075l-3.7-3.7a2.174,2.174,0,0,0-3.075,3.075Z" transform="translate(-122.47 -29.678)" fill="url(#linear-gradient)"/>
    <path id="Path_10782" data-name="Path 10782" d="M315.428,42.774a2.168,2.168,0,0,0,1.537-.637l3.7-3.7a2.174,2.174,0,0,0-3.075-3.075l-3.7,3.7a2.174,2.174,0,0,0,1.538,3.712Z" transform="translate(-267.848 -29.678)" fill="url(#linear-gradient)"/>
  </g>
</svg>
