<svg xmlns="http://www.w3.org/2000/svg" width="38.215" height="42.193" viewBox="0 0 38.215 42.193">
  <g id="rating_1_" data-name="rating (1)" transform="translate(-1.521 -0.027)">
    <circle id="Ellipse_583" data-name="Ellipse 583" cx="6.598" cy="6.598" r="6.598" transform="translate(14.03 13.188)" fill="#fff"/>
    <path id="Path_10766" data-name="Path 10766" d="M27.475,25.8v7.456A2.647,2.647,0,0,1,24.836,35.9h-13.2A2.647,2.647,0,0,1,9,33.257V25.8a8.35,8.35,0,0,1,2.534-5.991A9.017,9.017,0,0,0,15.1,22.146l-.8,5.648a1.363,1.363,0,0,0,.369,1.122L17.3,31.555a1.338,1.338,0,0,0,1.874,0l2.639-2.639a1.363,1.363,0,0,0,.37-1.122l-.8-5.648a9.017,9.017,0,0,0,3.563-2.336A8.35,8.35,0,0,1,27.475,25.8Z" transform="translate(2.391 6.323)" fill="#fff"/>
    <path id="Path_10767" data-name="Path 10767" d="M22.569,3.508l-2.479-.69L18.561.569a1.371,1.371,0,0,0-2.183,0L14.849,2.818l-2.479.69A1.319,1.319,0,0,0,11.69,5.6l1.72,2.165-.2,2.459a1.319,1.319,0,0,0,1.773,1.344l2.485-.918,2.485.918a1.319,1.319,0,0,0,1.773-1.344l-.2-2.459L23.249,5.6a1.319,1.319,0,0,0-.679-2.092Z" transform="translate(3.159)" fill="#fff"/>
    <path id="Path_10768" data-name="Path 10768" d="M12.688,7.878l-2.479-.69L8.679,4.94a1.32,1.32,0,0,0-2.182,0L4.967,7.189l-2.48.69a1.32,1.32,0,0,0-.68,2.092l1.721,2.166L3.33,14.6A1.32,1.32,0,0,0,5.1,15.939l2.485-.919,2.485.919A1.32,1.32,0,0,0,11.846,14.6l-.2-2.459,1.72-2.166a1.32,1.32,0,0,0-.68-2.092Z" transform="translate(0 1.386)" fill="#fff"/>
    <path id="Path_10769" data-name="Path 10769" d="M33.353,8.733a1.32,1.32,0,0,0-.9-.863l-2.48-.69-1.53-2.249a1.37,1.37,0,0,0-2.182,0L24.731,7.18l-2.479.69a1.32,1.32,0,0,0-.68,2.092l1.72,2.166-.2,2.459a1.32,1.32,0,0,0,1.773,1.344l2.485-.919,2.485.919a1.32,1.32,0,0,0,1.773-1.344l-.2-2.459,1.721-2.166a1.321,1.321,0,0,0,.222-1.229Z" transform="translate(6.318 1.394)" fill="#fff"/>
    <path id="Path_10770" data-name="Path 10770" d="M14.029,26.133s5.11,5.478,13.291,0c-.183,3.662-.274,10.014-.274,10.014S25.31,39.987,23.984,39.9s-4.25-.137-5.027-.548-4.388-3.29-4.524-4.433a37.924,37.924,0,0,1,0-3.976C14.433,30.481,14.029,26.133,14.029,26.133Z" fill="#fff"/>
  </g>
</svg>
