<svg xmlns="http://www.w3.org/2000/svg" xmlns:xlink="http://www.w3.org/1999/xlink" width="68" height="68" viewBox="0 0 68 68">
  <defs>
    <linearGradient id="linear-gradient" x1="0.115" y1="0.115" x2="0.915" y2="0.915" gradientUnits="objectBoundingBox">
      <stop offset="0" stop-color="#feeac2"/>
      <stop offset="0.252" stop-color="#fbd382"/>
      <stop offset="0.555" stop-color="#fbc965"/>
      <stop offset="0.815" stop-color="#f8bf4d"/>
      <stop offset="1" stop-color="#fdb627"/>
    </linearGradient>
    <clipPath id="clip-path">
      <rect id="Rectangle_4187" data-name="Rectangle 4187" width="48.264" height="31.477" fill="none"/>
    </clipPath>
    <clipPath id="clip-path-3">
      <rect id="Rectangle_4184" data-name="Rectangle 4184" width="38.671" height="23.402" fill="none"/>
    </clipPath>
    <clipPath id="clip-path-4">
      <rect id="Rectangle_4185" data-name="Rectangle 4185" width="29.851" height="23.401" fill="none"/>
    </clipPath>
  </defs>
  <g id="Group_5318" data-name="Group 5318" transform="translate(-1041 -2570)">
    <rect id="Rectangle_4205" data-name="Rectangle 4205" width="68" height="68" rx="17" transform="translate(1041 2570)" fill="url(#linear-gradient)"/>
    <g id="Group_5315" data-name="Group 5315" transform="translate(1050.868 2588.262)">
      <g id="Group_5281" data-name="Group 5281" clip-path="url(#clip-path)">
        <g id="Group_5280" data-name="Group 5280">
          <g id="Group_5279" data-name="Group 5279" clip-path="url(#clip-path)">
            <g id="Group_5275" data-name="Group 5275" transform="translate(0 8.075)" opacity="0.9">
              <g id="Group_5274" data-name="Group 5274">
                <g id="Group_5273" data-name="Group 5273" clip-path="url(#clip-path-3)">
                  <path id="Path_10714" data-name="Path 10714" d="M32.308,74.186H6.363C2.855,74.186,0,71.049,0,67.2a6.957,6.957,0,0,1,4.276-6.6,1.09,1.09,0,0,0,.675-1.2,1.782,1.782,0,0,1-.009-.273c0-4.6,3.409-8.336,7.6-8.336a7.109,7.109,0,0,1,4.146,1.361c.1.073.2.151.3.229q.187.149.366.31c.1.087.192.176.285.268.126.126.247.259.365.395.07.08.143.158.21.241a8.1,8.1,0,0,1,.52.719,1.05,1.05,0,0,0,.678.469h.006a.994.994,0,0,0,.3,0,.915.915,0,0,0,.112,0,1.036,1.036,0,0,0,.384-.17,5.9,5.9,0,0,1,3.452-1.126,5.791,5.791,0,0,1,2.23.451h0c.067.028.127.072.192.1a6.646,6.646,0,0,1,2.951,2.751,7.245,7.245,0,0,1,.91,2.627,1.093,1.093,0,0,0,.44.739,1.009,1.009,0,0,0,.752.17c.025,0,.05.005.076,0a5.068,5.068,0,0,1,1.1-.109,6.555,6.555,0,0,1,6.233,5.583,7.649,7.649,0,0,1,.129,1.407c0,3.854-2.855,6.99-6.363,6.99" transform="translate(0 -50.784)" fill="#fff"/>
                </g>
              </g>
            </g>
            <g id="Group_5278" data-name="Group 5278" transform="translate(18.413)" opacity="0.5">
              <g id="Group_5277" data-name="Group 5277">
                <g id="Group_5276" data-name="Group 5276" clip-path="url(#clip-path-4)">
                  <path id="Path_10715" data-name="Path 10715" d="M139.288,23.4h-.683a.592.592,0,0,1-.585-.5V22.9c-.016-.1-.026-.2-.045-.3-.049-.251-.109-.5-.176-.74-.01-.035-.016-.072-.026-.106q-.12-.417-.276-.816c-.028-.071-.062-.139-.091-.209-.08-.191-.161-.381-.252-.565-.045-.091-.1-.178-.145-.268-.084-.157-.169-.314-.261-.465-.058-.094-.121-.184-.181-.275-.092-.14-.186-.278-.285-.412-.067-.091-.139-.177-.209-.265-.1-.127-.2-.252-.313-.372-.076-.085-.155-.166-.234-.248-.111-.115-.224-.227-.341-.335-.083-.077-.168-.152-.254-.225q-.181-.155-.369-.3c-.089-.068-.18-.135-.271-.2-.13-.092-.263-.178-.4-.262-.094-.058-.188-.117-.284-.171-.14-.08-.283-.152-.428-.224-.1-.048-.194-.1-.293-.141-.151-.067-.306-.125-.46-.183-.1-.037-.2-.076-.3-.108-.164-.053-.332-.1-.5-.139-.1-.024-.189-.053-.286-.074-.188-.04-.379-.068-.57-.094-.082-.011-.161-.029-.243-.038a7.873,7.873,0,0,0-.835-.046h-.007a.633.633,0,0,1-.609-.442,9.47,9.47,0,0,0-.831-1.9,8.766,8.766,0,0,0-4.2-3.77,7.773,7.773,0,0,0-3-.613h0a7.883,7.883,0,0,0-2.975.583,1.289,1.289,0,0,1-1.412-.318,9.976,9.976,0,0,0-.731-.688c-.044-.038-.083-.081-.128-.118a6.566,6.566,0,0,1,6.186-5.363,5.9,5.9,0,0,1,3.455,1.126,1.024,1.024,0,0,0,.8.174,1.049,1.049,0,0,0,.677-.468A7.39,7.39,0,0,1,133.113,0c4.189,0,7.6,3.74,7.6,8.336a1.775,1.775,0,0,1-.01.277,1.09,1.09,0,0,0,.675,1.2,6.956,6.956,0,0,1,4.275,6.6c0,3.854-2.853,6.99-6.361,6.99" transform="translate(-115.799 0.001)" fill="#fff"/>
                </g>
              </g>
            </g>
          </g>
        </g>
      </g>
    </g>
  </g>
</svg>
