<svg xmlns="http://www.w3.org/2000/svg" width="73.413" height="85.948" viewBox="0 0 73.413 85.948">
  <g id="apple" transform="translate(-37.336)">
    <g id="Group_5153" data-name="Group 5153" transform="translate(72.619)">
      <g id="Group_5152" data-name="Group 5152">
        <path id="Path_10618" data-name="Path 10618" d="M265.057,0C260.474.317,255.119,3.25,252,7.069c-2.847,3.465-5.189,8.611-4.276,13.612,5.006.156,10.179-2.847,13.177-6.731C263.7,10.335,265.825,5.221,265.057,0Z" transform="translate(-247.522)" fill="#fff"/>
      </g>
    </g>
    <g id="Group_5155" data-name="Group 5155" transform="translate(37.336 20.117)">
      <g id="Group_5154" data-name="Group 5154" transform="translate(0)">
        <path id="Path_10619" data-name="Path 10619" d="M108.262,128.558c-4.4-5.517-10.582-8.718-16.421-8.718-7.708,0-10.969,3.69-16.325,3.69-5.522,0-9.717-3.68-16.384-3.68-6.548,0-13.521,4-17.941,10.845-6.215,9.637-5.151,27.755,4.92,43.188,3.6,5.522,8.417,11.732,14.713,11.785,5.6.054,7.182-3.594,14.772-3.631s9.03,3.68,14.622,3.621c6.3-.048,11.377-6.929,14.982-12.452a61.926,61.926,0,0,0,5.549-10.421C96.175,157.238,93.839,136.514,108.262,128.558Z" transform="translate(-37.336 -119.84)" fill="#fff"/>
      </g>
    </g>
  </g>
</svg>
